<?xml version="1.0" encoding="UTF-8"?>
<svg width="98px" height="121px" viewBox="0 0 98 121" version="1.1" xmlns="http://www.w3.org/2000/svg" xmlns:xlink="http://www.w3.org/1999/xlink">
    <!-- Generator: Sketch 54.1 (76490) - https://sketchapp.com -->
    <title>factory - icon 1</title>
    <desc>Created with Sketch.</desc>
    <g id="HD-Desktop" stroke="none" stroke-width="1" fill="none" fill-rule="evenodd">
        <g id="Main-HD-Desktop" transform="translate(-738.000000, -339.000000)">
            <g id="1-promo" transform="translate(165.000000, 179.000000)">
                <g id="2" transform="translate(573.000000, 160.000000)">
                    <g id="icons/vector/5">
                        <path d="M22.7267343,11.0777586 C22.7267343,11.0777586 22.3266093,7.82883908 19.8034843,8.28502299 C17.2803593,8.73981609 15.8077343,11.8329655 16.1899843,13.2515862 C16.5722343,14.6702069 15.8723593,19.6367701 15.5519843,19.5463678 C15.2302343,19.4559655 15.2357343,20.3655517 15.9493593,20.5978161 C16.6643593,20.8314713 18.9056093,21.0011494 19.3346093,18.5811494 C19.7636093,16.1625402 21.1234843,14.8092874 21.1234843,14.8092874 L22.7267343,11.0777586" id="Fill-317" fill="#793B26"></path>
                        <path d="M18.5907343,11.0777586 C18.5907343,11.0777586 18.9908593,7.82883908 21.5139843,8.28502299 C24.0371093,8.73981609 25.5111093,11.8329655 25.1288593,13.2515862 C24.7466093,14.6702069 25.4451093,19.6367701 25.7668593,19.5463678 C26.0872343,19.4559655 26.0831093,20.3655517 25.3681093,20.5978161 C24.6544843,20.8314713 22.4132343,21.0011494 21.9842343,18.5811494 C21.5538593,16.1625402 20.1939843,14.8092874 20.1939843,14.8092874 L18.5907343,11.0777586" id="Fill-318" fill="#793B26"></path>
                        <path d="M20.9117343,109.372874 C20.9117343,109.372874 20.2297343,109.656598 20.1981093,110.396506 C20.1747343,110.957 20.1183593,114.466 20.1183593,114.466 C20.1183593,114.466 20.8691093,114.720517 21.7326093,115.502149 C22.4489843,116.151655 23.1034843,117.566103 24.0714843,117.970828 C25.2581093,118.467345 26.6317343,118.507678 27.1624843,118.282368 C27.6011093,118.097391 27.4484843,117.105747 26.8173593,116.084897 C25.8617343,114.541103 24.7108593,112.676034 24.7108593,112.676034 L20.9117343,109.372874" id="Fill-319" fill="#303030"></path>
                        <path d="M24.1168593,108.733103 C24.1168593,108.733103 24.1924843,109.674678 24.4702343,110.81792 C24.8428593,112.358931 25.4808593,114.289368 25.8342343,114.987552 C26.2838593,115.879057 26.2068593,116.531345 24.8167343,116.119667 C23.4266093,115.707989 21.2183593,112.104414 20.8031093,110.587046 C20.6147343,109.899989 21.0231093,109.175379 21.1056093,108.733103 C21.3022343,107.692782 24.1168593,108.733103 24.1168593,108.733103" id="Fill-320" fill="#FFBD95"></path>
                        <path d="M1.08698428,112.493839 C1.08698428,112.493839 0.161609279,113.574494 0.033734279,114.453483 C-0.094140721,115.332471 0.138234279,117.502126 0.787234279,117.707966 C1.43760928,117.913805 3.04085928,116.745529 3.26773428,116.542471 C4.67848428,115.27823 5.33435928,112.210115 5.33435928,112.210115 L1.08698428,112.493839" id="Fill-321" fill="#303030"></path>
                        <path d="M2.84010928,109.021 C2.84010928,109.021 0.938484279,112.624575 0.851859279,113.079368 C0.763859279,113.534161 0.916484279,115.372805 1.54898428,115.497977 C3.31998428,115.844287 5.28898428,112.972276 5.41273428,111.870759 C5.53510928,110.769241 5.68635928,109.580103 5.68635928,109.580103 L2.84010928,109.021" id="Fill-322" fill="#FFBD95"></path>
                        <path d="M29.6429843,56.4541494 C30.6811093,58.3692874 30.6329843,61.8157011 30.1173593,66.2996552 C29.4133593,72.4122414 27.4306093,82.1478736 27.1844843,83.0157356 C26.0652343,86.9753563 22.2083593,86.8084598 21.6184843,83.6624598 C21.4562343,82.7945977 20.1376093,65.2273448 20.3521093,63.2746552 C20.5666093,61.3219655 21.6212343,57.7420345 23.0154843,55.5723793 C24.0536093,53.9576552 28.0947343,53.6002184 29.6429843,56.4541494" id="Fill-323" fill="#FFBD95"></path>
                        <path d="M20.6559843,87.4663103 C20.8168593,81.3926667 22.4792343,80.1979655 24.6269843,80.1993563 C28.0603593,80.2007471 27.4869843,86.686069 27.4333593,88.6596207 C27.3811093,90.5872759 24.7837343,106.242172 24.1168593,108.733103 C23.1021093,108.733103 22.0969843,108.733103 21.1056093,108.733103 C20.7109843,104.484195 20.5239843,92.4412184 20.6559843,87.4663103" id="Fill-324" fill="#FFBD95"></path>
                        <path d="M2.84560928,109.012655 C2.97623428,107.012678 6.22673428,91.4398391 6.87848428,89.5775517 C7.53023428,87.7152644 9.05373428,80.6096437 13.6861093,82.4260345 C15.6853593,83.2090575 15.9947343,84.6652299 13.9831093,90.3967356 C12.3468593,95.0601034 7.73373428,105.97931 5.75098428,109.836011 C4.78573428,109.673287 2.83735928,109.137828 2.84560928,109.012655" id="Fill-325" fill="#FFBD95"></path>
                        <path d="M11.9907343,56.5946207 C10.6006093,58.264977 9.97635928,61.6543678 9.61060928,66.1522299 C9.11148428,72.2856782 9.34798428,81.5094943 9.42085928,82.4093448 C9.74810928,86.515 14.3034843,87.2034483 15.4942343,84.2354713 C15.8228593,83.4176782 19.8928593,66.4971494 20.0619843,64.5402874 C20.2324843,62.5820345 20.7178593,59.0299195 19.7732343,56.6252184 C19.0692343,54.8352529 14.0628593,54.1036897 11.9907343,56.5946207" id="Fill-326" fill="#FFBD95"></path>
                        <path d="M28.1236093,24.0122414 C29.5164843,23.4712184 31.9007343,26.6714598 33.2523593,30.542069 C35.6049843,37.268 37.5478593,39.0204138 35.1526093,40.165046 C32.9801093,41.203977 31.8787343,38.5169425 28.9513593,33.1303563 C26.6633593,28.919 25.2374843,25.1304483 28.1236093,24.0122414" id="Fill-327" fill="#B8D1FF"></path>
                        <path d="M29.0324843,53.6196897 C29.7323593,55.4638966 30.2658593,57.1815402 30.0224843,58.1356322 C29.3129843,60.9172414 21.1922343,63.2746552 21.1922343,63.2746552 L20.6559843,63.2746552 L20.6559843,54.258069 C23.7854843,54.258069 25.9043593,53.6196897 29.0324843,53.6196897" id="Fill-328" fill="#27547C"></path>
                        <path d="M10.6129843,26.1123563 C11.1671093,24.8495057 14.0339843,24.2904023 15.3471093,23.8954138 C16.6891093,23.4906897 20.6559843,23.353 20.6559843,23.353 C20.6559843,23.353 26.9342343,23.9872069 28.2927343,23.9357471 C28.8674843,23.9148851 29.2909843,26.008046 29.5123593,26.606092 C30.7553593,29.9565402 32.2321093,33.8577471 29.1191093,36.5767701 C28.4096093,37.197069 27.7881093,44.2693103 27.7881093,47.5446552 C27.7881093,48.9090345 28.0658593,51.0675632 29.0324843,53.6196897 C25.9043593,53.6196897 23.7854843,54.258069 20.6559843,54.258069 C17.5278593,54.258069 14.3983593,54.258069 11.2702343,54.258069 C12.2368593,51.7045517 13.2818593,48.8867816 13.5238593,47.5446552 C15.3471093,37.4654943 9.77560928,28.0205402 10.6129843,26.1123563" id="Fill-329" fill="#CEE0FF"></path>
                        <path d="M20.6559843,54.258069 L20.6559843,63.2746552 L20.1197343,63.2746552 C20.1197343,63.2746552 10.9897343,61.5542299 10.2802343,58.7726207 C10.0368593,57.8185287 10.5703593,56.1008851 11.2702343,54.258069 C14.3983593,54.258069 17.5278593,54.258069 20.6559843,54.258069" id="Fill-330" fill="#27547C"></path>
                        <path d="M17.7877343,21.2918276 C18.1892343,20.2334253 18.1493593,16.2473793 18.1493593,16.2473793 L23.1639843,16.2473793 C23.1639843,16.2473793 23.1227343,20.2334253 23.5256093,21.2918276 C23.9271093,22.3488391 25.5248593,23.6283793 25.5248593,23.6283793 L21.8371093,25.3557586 L16.5131093,23.353 C16.5131093,23.353 17.3848593,22.3488391 17.7877343,21.2918276" id="Fill-331" fill="#FFBD95"></path>
                        <path d="M33.7748593,40.1942529 C32.5332343,39.6935632 32.2939843,36.2958276 33.7844843,32.5434368 C35.5032343,28.2194253 37.8613593,21.9733218 38.9476093,22.4712299 C40.4312343,23.1513333 38.7839843,28.6936897 38.1514843,33.3918276 C37.5107343,38.1497701 36.3461093,41.2317931 33.7748593,40.1942529" id="Fill-332" fill="#FFBD95"></path>
                        <path d="M18.1246093,18.2181494 C18.1576093,17.1555747 18.1493593,16.2459885 18.1493593,16.2459885 L23.1639843,16.2459885 C23.1639843,16.2459885 23.1227343,20.2334253 23.5256093,21.2918276 C23.9271093,22.3488391 25.9648593,23.8954138 25.9648593,23.8954138 L18.1246093,18.220931 L18.1246093,18.2181494" id="Fill-333" fill="#FFA47C"></path>
                        <path d="M16.6629843,13.488023 C17.1758593,17.4392989 20.9406093,20.1958736 22.9343593,19.9316207 C24.8758593,19.6743218 27.0854843,16.0957816 26.9397343,12.0568851 C26.7953593,8.0764023 24.1072343,5.82608046 21.1564843,6.21689655 C18.2043593,6.60910345 16.1514843,9.53813793 16.6629843,13.488023" id="Fill-334" fill="#FFBD95"></path>
                        <path d="M24.0219843,9.02632184 C23.5654843,10.1153218 22.4696093,10.7537011 20.0977343,10.8816552 C18.3996093,10.9734483 17.2404843,13.3183448 17.2349843,14.2599195 C17.2322343,14.6215287 17.5924843,16.3655977 17.5924843,16.3655977 C17.5924843,16.3655977 14.0504843,12.718908 17.4371093,8.27806897 C20.8237343,3.83862069 24.7411093,6.52009195 24.7631093,6.87196552 C24.7864843,7.22522989 24.2419843,8.5005977 24.0219843,9.02632184" id="Fill-335" fill="#8D3B26"></path>
                        <path d="M23.0787343,8.08057471 C23.0787343,8.08057471 23.0306093,9.73006897 24.4111093,10.0986322 C25.7902343,10.4671954 27.0964843,11.6758046 27.0964843,11.6758046 C27.0964843,11.6758046 27.4732343,7.7732069 24.7631093,6.87196552 C22.0543593,5.97072414 23.0787343,8.08057471 23.0787343,8.08057471" id="Fill-336" fill="#8D3B26"></path>
                        <path d="M18.0022343,37.4627126 C18.8341093,37.0691149 20.6559843,37.2374023 24.9487343,37.012092 C29.2414843,36.7881724 29.8382343,34.5962644 30.4734843,33.6407816 C31.0908593,32.7117241 30.5106093,29.594931 30.4762343,29.4182989 C31.2173593,31.9857241 31.3878593,34.5948736 29.1191093,36.5767701 C28.4096093,37.197069 27.7881093,44.2693103 27.7881093,47.5446552 C27.7881093,48.9090345 28.0658593,51.0675632 29.0324843,53.6196897 C27.0497343,53.6196897 25.4712343,53.8755977 23.7841093,54.0633563 C23.7841093,54.0605747 24.0604843,51.680908 24.3382343,50.4583908 C24.6159843,49.2358736 24.3382343,45.667069 23.3111093,43.6448391 C22.2839843,41.6212184 17.6708593,40.0468276 17.1703593,39.3736782 C16.6698593,38.6991379 17.1703593,37.8563103 18.0022343,37.4627126" id="Fill-337" fill="#B8D1FF"></path>
                        <polyline id="Fill-338" fill="#B8D1FF" points="22.2812343 24.028931 21.8371093 25.3557586 24.1911093 24.3655057 22.2812343 24.028931"></polyline>
                        <polyline id="Fill-339" fill="#B8D1FF" points="21.8371093 25.3557586 21.3531093 24.028931 19.9616093 24.6923448 21.8371093 25.3557586"></polyline>
                        <path d="M29.0324843,53.6196897 C29.0324843,53.6196897 30.9767343,55.9395517 31.2544843,60.1620345 C31.5322343,64.3831264 27.9764843,83.7723333 27.9764843,83.7723333 L19.6948593,84.2452069 L8.71823428,83.3801264 C8.71823428,83.3801264 8.97398428,65.6501494 9.47448428,60.3525747 C9.97498428,55.0536092 11.4613593,53.7490345 11.4613593,53.7490345 L21.4204843,54.1551494 L29.0324843,53.6196897" id="Fill-340" fill="#303030"></path>
                        <polyline id="Fill-341" fill="#E0F2FF" points="21.3531093 24.028931 19.8364843 26.3265402 15.3471093 23.8954138 16.9709843 21.7313218 21.3531093 24.028931"></polyline>
                        <polyline id="Fill-342" fill="#E0F2FF" points="26.6289843 23.8954138 24.6311093 22.0665057 22.2812343 24.028931 23.9711093 26.129046 26.6289843 23.8954138"></polyline>
                        <path d="M21.8783593,71.5958391 C22.4613593,72.2703793 22.2028593,77.5637816 23.1007343,78.592977 C24.0577343,79.688931 25.4616093,79.5192529 26.2783593,77.6653103 C27.0937343,75.809977 29.2346093,62.6724368 27.5021093,58.0702644 C26.2783593,54.819954 23.7841093,54.0633563 23.7841093,54.0633563 L24.0989843,53.966 L29.0324843,53.6196897 C29.0324843,53.6196897 30.9767343,55.9395517 31.2544843,60.1620345 C31.5322343,64.3831264 27.9764843,83.7723333 27.9764843,83.7723333 L19.6948593,84.2452069 L17.9279843,84.1436782 C17.9279843,84.1436782 19.8777343,83.7347816 20.1816093,81.9086552 C20.7907343,78.2480575 21.3764843,71.0158736 21.8783593,71.5958391" id="Fill-343" fill="#191919"></path>
                        <path d="M37.4337343,24.4712069 C37.4337343,24.4712069 36.4286093,22.4531494 37.4144843,21.3919655 C38.3989843,20.3293908 40.1672343,20.2974023 40.5646093,20.1833563 C42.2049843,19.7132644 43.1028593,17.7091149 44.0337343,17.2543218 C44.9646093,16.8009195 45.3468593,17.3280345 45.0746093,17.5992414 C43.5497343,19.1152184 43.0808593,20.519931 42.3259843,21.1012874 C41.5711093,21.6840345 39.3999843,24.5991609 39.3999843,24.5991609 L37.4337343,24.4712069" id="Fill-344" fill="#FFBD95"></path>
                        <path d="M37.0734822,22.862046 C37.0734822,22.862046 37.0679843,21.2375862 37.6276093,20.4712529 C38.1872343,19.7063103 39.4329843,19.6631954 39.9857343,19.0860115 C40.5371093,18.5102184 40.6292343,19.0067356 40.6457343,19.1458161 C40.6636093,19.2848966 39.9761093,19.9858621 39.7121093,20.3502529 C39.4481093,20.7160345 39.0232343,22.8495287 37.0734822,22.862046" id="Fill-345" fill="#FFBD95"></path>
                        <path d="M12.5476093,25.8147241 C14.0064843,26.1346092 14.0958593,30.9342759 12.9491093,35.7756667 C10.9567343,44.1900345 11.5287343,47.2205977 8.89560928,46.8923678 C6.50723428,46.5961264 7.16998428,43.1316322 7.91110928,35.7367241 C8.48860928,29.9551494 9.52810928,25.1527011 12.5476093,25.8147241" id="Fill-346" fill="#CEE0FF"></path>
                        <path d="M7.87398428,46.4292299 C8.86260928,47.5877701 12.7181093,46.6378506 16.3659843,43.6976897 C20.5679843,40.3096897 26.6826093,35.5489655 25.7517343,34.555931 C24.4812343,33.2012874 18.9001093,36.9453333 13.9047343,39.2971839 C8.84473428,41.6796322 5.82935928,44.030092 7.87398428,46.4292299" id="Fill-347" fill="#FFBD95"></path>
                        <path d="M23.3441093,35.6838736 C23.3441093,35.6838736 23.8033593,31.9787701 23.7016093,31.7979655 C23.5998593,31.6157701 28.2501093,26.8661724 28.3614843,27.2347356 C28.4742343,27.6032989 28.2377343,28.3654598 27.6038593,29.1401379 C26.9699843,29.9134253 27.0992343,34.1998851 26.0569843,35.6630115 C25.0161093,37.1275287 23.3441093,35.6838736 23.3441093,35.6838736" id="Fill-348" fill="#FFBD95"></path>
                        <path d="M17.0424843,10.0110115 C17.0424843,10.0110115 16.8444843,11.6452069 16.4553593,11.908069 C16.0676093,12.170931 15.8874843,11.6758046 15.8874843,11.6758046 L15.8874843,12.7967931 C15.8874843,12.7967931 16.1157343,12.9942874 16.6121093,12.7898391 C17.2597343,12.5228046 17.7134843,11.6549425 17.9637343,10.4894483 C18.1163593,9.77735632 17.0424843,10.0110115 17.0424843,10.0110115" id="Fill-349" fill="#CEE0FF"></path>
                        <path d="M27.8238593,9.63410345 C27.8238593,9.63410345 27.1363593,4.92483908 23.1777343,3.7802069 C20.4346093,2.98744828 18.1493593,4.61468966 17.2776093,6.06390805 C16.3453593,7.61326437 16.0084843,9.66052874 16.0084843,9.66052874 C16.0084843,9.66052874 19.5243593,10.6632989 20.8031093,10.7356207 C22.0818593,10.8065517 26.4983593,10.6507816 27.8238593,9.63410345" id="Fill-350" fill="#C0D6FF"></path>
                        <path d="M24.7493593,12.4004138 C20.1431093,12.6535402 15.5918593,10.1083678 15.5891093,9.88444828 C15.5877343,9.66052874 15.7101093,9.57708046 16.0084843,9.66052874 C16.3068593,9.74397701 20.8746093,10.7286667 24.0508593,10.463023 C27.2257343,10.1973793 27.7551093,9.12924138 27.7551093,9.12924138 C27.7551093,9.12924138 29.4766093,12.1417241 24.7493593,12.4004138" id="Fill-351" fill="#CEE0FF"></path>
                        <path d="M18.8574843,6.48671264 C19.2081093,5.41996552 20.1706093,4.03472414 22.0337343,3.58827586 C19.6054843,3.45197701 18.0366093,4.80244828 17.2776093,6.06390805 C16.3453593,7.61326437 16.0084843,9.66052874 16.0084843,9.66052874 C16.0084843,9.66052874 17.0562343,10.4212989 21.2169843,10.5742874 C19.3662343,9.922 18.3569843,8.01242529 18.8574843,6.48671264" id="Fill-352" fill="#CEE0FF"></path>
                        <path d="M15.8874843,9.7105977 C15.8874843,9.7105977 16.2559843,7.0791954 17.5581093,7.23913793 C18.8616093,7.39908046 19.2273593,10.4866667 19.2273593,10.4866667 C19.2273593,10.4866667 17.8234843,10.5742874 15.8874843,9.7105977" id="Fill-353" fill="#C0D6FF"></path>
                        <path d="M23.8061093,10.7328391 C23.8061093,10.7328391 23.9834843,7.35735632 23.4802343,5.87614943 C22.9769843,4.39494253 21.9471093,3.5701954 21.9471093,3.5701954 C21.9471093,3.5701954 22.8862343,4.66197701 23.2148593,6.47836782 C23.4142343,7.58127586 23.3441093,10.4727586 23.3441093,10.4727586 L23.8061093,10.7328391" id="Fill-354" fill="#F2FFFF"></path>
                        <path d="M23.8061093,10.7328391 C23.8061093,10.7328391 25.6073593,10.6938966 25.6032343,10.4838851 C25.5908593,10.0026667 25.2718593,5.83025287 22.8697343,3.54655172 L21.9471093,3.5701954 C21.9471093,3.5701954 23.2863593,4.30732184 23.6259843,6.73288506 C23.8487343,8.33091954 23.8061093,10.7328391 23.8061093,10.7328391" id="Fill-355" fill="#CEE0FF"></path>
                        <path d="M18.8327343,10.5742874 L16.1556093,9.51032184 C16.1556093,9.51032184 16.4732343,6.79964368 17.7973593,7.47557471 C18.5989843,7.88447126 19.0802343,9.48667816 19.2273593,10.4866667 L18.8327343,10.5742874" id="Fill-356" fill="#CEE0FF"></path>
                        <path d="M16.1556093,9.74258621 C16.1556093,9.74258621 16.5543593,7.46862069 17.4274843,7.57571264 C18.3019843,7.6828046 18.8327343,10.5742874 18.8327343,10.5742874 C18.8327343,10.5742874 16.8596093,10.1973793 16.1556093,9.74258621" id="Fill-357" fill="#F2FFFF"></path>
                        <path d="M23.9642343,26.6255632 C23.9642343,26.6255632 22.7528593,24.9746782 25.3584843,24.7285057 C28.2542343,24.4545172 28.1951093,25.8355862 28.1951093,25.8355862 L28.2583593,27.2152644 L23.9642343,26.6255632" id="Fill-358" fill="#A5C5FF"></path>
                        <path d="M28.1951093,25.8355862 C28.1951093,25.8355862 28.1346093,26.3432299 27.1459843,26.2472644 C26.1559843,26.149908 26.1559843,25.8355862 26.1559843,25.8355862 L26.1559843,26.8439195 L28.2583593,27.0428046 L28.1951093,25.8355862" id="Fill-359" fill="#E0F2FF"></path>
                        <path d="M96.9299843,27.1498966 C96.9299843,27.1498966 98.1413593,25.4976207 95.5357343,25.2514483 C92.6399843,24.9788506 92.6991093,26.3585287 92.6991093,26.3585287 L92.6358593,27.7382069 L96.9299843,27.1498966" id="Fill-360" fill="#B8D1FF"></path>
                        <path d="M92.6991093,26.3585287 C92.6991093,26.3585287 92.7596093,26.8675632 93.7496093,26.7702069 C94.7382343,26.6742414 94.7382343,26.3585287 94.7382343,26.3585287 L94.7382343,27.3682529 L92.6358593,27.5671379 L92.6991093,26.3585287" id="Fill-361" fill="#CEE0FF"></path>
                        <path d="M96.2163593,35.7631494 L95.3721093,36.0051494 C94.3491093,36.2986092 92.2082343,36.0593908 91.9181093,35.0246322 L92.9851093,34.6588506 C92.6936093,33.624092 92.9741093,32.663046 93.9971093,32.3695862 L95.1603593,32.001023 C96.8832343,30.5504138 97.2572343,32.313954 97.5473593,33.3473218 C97.8374843,34.3820805 97.2393593,35.4682989 96.2163593,35.7631494" id="Fill-362" fill="#FFBD95"></path>
                        <polygon id="Fill-363" fill="#B8D1FF" points="49.4718593 22.9538391 58.6211093 22.9538391 58.6211093 19.7271724 49.4718593 19.7271724"></polygon>
                        <path d="M63.2039843,39.9522529 C64.8512343,34.8563448 69.1096093,26.122092 66.6263593,24.5977701 C63.3896093,22.6103103 54.0698593,21.3794483 54.0698593,21.3794483 L54.0698593,21.5407816 C54.0698593,21.5407816 44.6689843,22.3224138 41.4253593,24.3001379 C38.9379843,25.8175057 43.2499843,34.9856897 44.8821093,40.0871609 C45.2739843,41.3096782 45.2231093,46.7950115 45.0649843,51.6586552 C45.0264843,52.8589195 44.0557343,58.3748506 44.2152343,60.6557701 C44.2633593,61.3358736 51.8712343,65.5625287 54.0052343,65.6724023 L54.0052343,65.511069 C56.1392343,65.4067586 63.7594843,61.2037471 63.8089843,60.5236437 C63.9767343,58.2427241 63.0224843,52.7240115 62.9867343,51.5251379 C62.8437343,46.6601034 62.8079843,41.1747701 63.2039843,39.9522529" id="Fill-364" fill="#FFBD95"></path>
                        <path d="M42.0413593,25.7841264 C40.1658593,25.4447701 38.2738593,27.3668621 37.7059843,30.912023 C37.1367343,34.4571839 37.1339843,36.9383793 37.0088593,37.8632644 C36.8796093,38.8187471 35.7259843,44.2957356 35.6503593,45.8061494 C35.5761093,47.3165632 36.3818593,49.3374023 37.8751093,49.5821839 C39.1249843,49.788023 40.9413593,47.2372874 41.8364843,44.7908621 C42.7316093,42.3444368 47.0821093,26.6964943 42.0413593,25.7841264" id="Fill-365" fill="#FFBD95"></path>
                        <path d="M75.8058593,39.0607471 C75.5336093,37.516954 76.1179843,36.0983333 80.3969843,35.0927816 C84.6759843,34.0858391 93.1913593,33.4196437 93.1913593,33.4196437 L93.6313593,35.9175287 C93.6313593,35.9175287 87.3049843,39.5155402 85.0059843,40.165046 C82.7056093,40.8131609 76.5181093,43.1024253 75.8058593,39.0607471" id="Fill-366" fill="#FFBD95"></path>
                        <path d="M62.6512343,24.5310115 C63.9478593,23.117954 66.6002343,23.5004253 69.1646093,25.9844023 C71.7289843,28.4683793 73.2084843,30.4474943 73.8588593,31.110908 C74.5298593,31.7951839 78.7112343,35.4641264 79.6709843,36.6254483 C80.6293593,37.7853793 80.9181093,39.4140115 79.8703593,40.5197011 C78.9944843,41.4445862 76.2981093,40.9897931 74.1269843,39.5822989 C71.9558593,38.1734138 59.1697343,28.3292989 62.6512343,24.5310115" id="Fill-367" fill="#FFBD95"></path>
                        <path d="M66.0749843,23.9399195 C67.1653593,23.6701034 68.6943593,24.8244713 70.1807343,26.3752184 C71.6671093,27.9259655 77.8903593,34.3904253 77.8903593,34.3904253 C77.8903593,34.3904253 78.0966093,34.8299195 77.0076093,37.2999885 C75.9928593,39.6031609 74.9437343,40.6462644 74.9437343,40.6462644 C74.9437343,40.6462644 64.6711093,34.2986322 63.5931093,32.0552644 C63.2699843,31.3862874 63.0527343,24.6881724 66.0749843,23.9399195" id="Fill-368" fill="#CEE0FF"></path>
                        <path d="M40.9427343,24.1721839 C40.9427343,24.1721839 38.6849843,25.0762069 37.8338593,26.9106782 C36.9813593,28.7451494 35.0494843,44.4876667 35.0494843,44.4876667 C35.0494843,44.4876667 41.8873593,44.7908621 42.2242343,44.8117241 C42.5611093,44.8311954 45.5132343,34.7186552 45.5132343,34.7186552 C45.5132343,34.7186552 43.8948593,24.8508966 40.9427343,24.1721839" id="Fill-369" fill="#CEE0FF"></path>
                        <path d="M57.9666093,19.8745977 C57.7548593,18.9024253 57.2282343,14.099977 57.2282343,14.099977 L54.0808593,14.0958046 L54.0808593,14.2571379 L50.9334843,14.2529655 C50.9334843,14.2529655 50.3931093,19.054023 50.1786093,20.0248046 C49.9641093,20.9955862 47.3722343,22.4573218 47.3722343,22.4573218 L54.0684843,22.4670575 L54.0684843,22.3057241 L60.7661093,22.3154598 C60.7661093,22.3154598 58.1783593,20.8453793 57.9666093,19.8745977" id="Fill-370" fill="#FFBD95"></path>
                        <path d="M57.7562343,18.5185632 C57.5582343,17.0484828 57.3231093,14.953931 57.2502343,14.3030345 L57.0481093,14.099977 L54.0808593,14.0958046 L54.0808593,14.2571379 L50.9334843,14.2529655 C50.9334843,14.2529655 50.3931093,19.054023 50.1786093,20.0248046 C49.9641093,20.9955862 47.3722343,22.4573218 47.3722343,22.4573218 L47.6884843,22.4573218 C50.6777343,21.6562184 53.6504843,20.8565057 54.0519843,20.741069 C54.8879843,20.5004598 57.7562343,18.519954 57.7562343,18.519954 L57.7562343,18.5185632" id="Fill-371" fill="#FFA47C"></path>
                        <path d="M49.0071093,55.3067356 C45.1667343,55.2886552 43.6693593,57.9965517 43.7628593,66.3052184 C43.8577343,74.6138851 45.0691093,83.624908 45.6012343,84.9211379 C46.1319843,86.215977 51.5742343,86.2521379 52.1091093,85.496931 C52.6426093,84.7431149 54.0024843,67.5068736 54.0066093,64.8101034 C54.0107343,62.1119425 53.1898593,55.3262069 49.0071093,55.3067356" id="Fill-372" fill="#FFBD95"></path>
                        <path d="M49.2422343,91.5733563 L48.2288593,91.546931 C46.7039843,91.5079885 45.4884843,90.2131494 45.5269843,88.6707471 L45.6149843,85.2187701 C45.6534843,83.6763678 46.9336093,82.4468966 48.4584843,82.4858391 L49.4704843,82.5122644 C50.9967343,82.5525977 52.2122343,83.846046 52.1723593,85.3884483 L52.0857343,88.8404253 C52.0472343,90.3828276 50.7671093,91.6122989 49.2422343,91.5733563" id="Fill-373" fill="#FFBD95"></path>
                        <path d="M48.6936093,86.4871839 C47.5207343,86.4857931 44.6401093,86.8738276 44.7886093,94.6206092 C44.9371093,102.366 48.1738593,112.97923 48.1738593,112.97923 L50.9486093,112.983402 C50.9486093,112.983402 52.3222343,98.6455977 52.3332343,95.8945862 C52.3579843,89.6359655 52.4006093,86.4927471 48.6936093,86.4871839" id="Fill-374" fill="#FFBD95"></path>
                        <path d="M59.1381093,55.3762759 C62.9551093,54.9590345 64.7206093,57.4958621 65.4727343,65.7697586 C66.2234843,74.0436552 65.9361093,83.133954 65.5387343,84.4774713 C65.1427343,85.8223793 59.7334843,86.4245977 59.1243593,85.7291954 C58.5166093,85.0337931 55.4104843,68.0325977 55.1313593,65.3497356 C54.8536093,62.6668736 54.9787343,55.831069 59.1381093,55.3762759" id="Fill-375" fill="#FFBD95"></path>
                        <path d="M62.5838593,91.476 L63.6013593,91.3424828 C65.1124843,91.1449885 66.1891093,89.7263678 65.9924843,88.1909195 L65.5566093,84.7792759 C65.3599843,83.248 63.9671093,82.1562184 62.4587343,82.3523218 L61.4412343,82.4858391 C59.9301093,82.6833333 58.8548593,84.101954 59.0501093,85.6374023 L59.4873593,89.049046 C59.6826093,90.5817126 61.0768593,91.6734943 62.5838593,91.476" id="Fill-376" fill="#FFBD95"></path>
                        <path d="M62.6223593,86.3578391 C63.7883593,86.2340575 66.6937343,86.3202874 67.3344843,94.0406437 C67.9752343,101.761 65.8343593,112.655172 65.8343593,112.655172 L63.0761093,112.948632 C63.0761093,112.948632 60.2491093,98.8291839 59.9589843,96.0948621 C59.2976093,89.8724023 58.9359843,86.750046 62.6223593,86.3578391" id="Fill-377" fill="#FFBD95"></path>
                        <path d="M44.8422343,53.6363793 C44.8422343,53.6363793 43.4521093,60.4777471 43.2334843,64.1995402 C43.0148593,67.9227241 44.7913593,84.1965287 44.7941093,85.9878851 C44.7982343,87.7792414 44.6703593,93.2826552 44.7762343,98.6775862 C44.8807343,104.072517 46.2419843,114.694092 46.2419843,114.694092 L53.0688593,114.534149 C53.0688593,114.534149 53.1128593,91.724954 53.1183593,88.1394598 C53.1238593,84.5553563 54.0052343,65.6724023 54.0052343,65.6724023 L54.0217343,53.9381839 L44.8422343,53.6363793" id="Fill-378" fill="#191919"></path>
                        <path d="M67.4389843,24.697908 C67.0168593,23.9872069 64.7508593,23.3988966 62.6622343,22.741046 C60.8211093,22.1624713 59.1738593,21.4267356 59.1738593,21.4267356 L54.0561093,24.3808046 L48.9479843,21.4114368 C48.9479843,21.4114368 47.2979843,22.1402184 45.4541093,22.7146207 C43.3641093,23.366908 41.0307343,23.9121034 40.6718593,24.6561839 C40.3074843,25.4127816 44.0323593,39.9383448 44.4517343,41.1747701 C44.8697343,42.4098046 43.7807343,51.0508736 44.8422343,53.6363793 L54.0024843,53.9381839 L54.0024843,53.9395747 L54.0217343,53.9381839 L63.1833593,53.6641954 C64.0248593,50.7017816 63.1778593,42.2762874 63.5999843,41.0412529 C64.0221093,39.8076092 68.1443593,25.8842644 67.4389843,24.697908" id="Fill-379" fill="#CEE0FF"></path>
                        <path d="M63.1063593,53.4444483 C63.1063593,53.4444483 65.1853593,60.1050115 65.7821093,63.7850805 C66.3788593,67.4637586 66.2674843,83.8377011 66.4462343,85.6193218 C66.6249843,87.4009425 67.3124843,92.8612414 67.7566093,98.2394828 C68.2007343,103.616333 67.9092343,114.32692 67.9092343,114.32692 L61.1016093,114.877678 C61.1016093,114.877678 58.7558593,92.1922644 58.3859843,88.6262414 C58.0161093,85.0602184 53.9777343,66.2621034 53.9777343,66.2621034 L54.0217343,53.9381839 L63.1063593,53.4444483" id="Fill-380" fill="#191919"></path>
                        <path d="M46.9583593,114.677402 C46.9583593,114.677402 44.6236093,117.435368 44.7473593,118.162759 C44.8161093,118.577218 45.8006093,120.079287 47.5881093,120.190552 C48.9479843,120.275391 51.1644843,119.022276 51.5096093,118.986115 C52.3098593,118.902667 52.3084843,114.55223 52.3084843,114.55223 L46.9583593,114.677402" id="Fill-381" fill="#191919"></path>
                        <path d="M66.9536093,114.408977 C66.9536093,114.408977 69.5564843,116.908253 69.5083593,117.645379 C69.4808593,118.065402 68.6558593,119.662046 66.8876093,119.958287 C65.5442343,120.183598 63.2122343,119.16831 62.8643593,119.16831 C62.0599843,119.169701 61.6199843,114.840126 61.6199843,114.840126 L66.9536093,114.408977" id="Fill-382" fill="#191919"></path>
                        <path d="M55.5191093,52.7017586 C54.6391093,52.1426552 53.3191093,51.5849425 52.5188593,51.0814713 C51.7186093,50.5793908 52.4968593,48.8547931 52.4886093,47.9632874 C52.4803593,47.0731724 54.9251093,45.4055977 56.5778593,44.7964253 C58.2292343,44.1858621 61.0919843,44.4125632 61.7547343,43.2442874 C62.4161093,42.0760115 60.6561093,40.9591954 59.8861093,40.9578046 C59.1147343,40.9578046 54.1633593,39.5016322 53.3919843,39.6128966 C52.6206093,39.7227701 46.7851093,40.3263793 45.8501093,39.6003793 C44.9151093,38.8757701 40.2813593,25.2486667 40.2813593,25.2486667 C41.3194843,29.8258046 44.1849843,40.3889655 44.4517343,41.1747701 C44.8697343,42.4098046 43.7807343,51.0508736 44.8422343,53.6363793 L54.0024843,53.9381839 L54.0024843,53.9395747 L54.0217343,53.9381839 L63.1833593,53.6641954 C63.1833593,53.6641954 61.1882343,53.3776897 60.3632343,53.1245632 C59.5382343,52.870046 56.3991093,53.2594713 55.5191093,52.7017586" id="Fill-383" fill="#B8D1FF"></path>
                        <path d="M62.3074843,67.3942184 C62.6911093,69.8336897 63.1269843,86.222931 63.1916093,87.1519885 C63.2562343,88.0601839 65.5607343,113.339448 65.6679843,114.507724 L67.9078593,114.32692 C67.9078593,114.32692 68.2007343,103.616333 67.7566093,98.2394828 C67.3124843,92.8612414 66.6249843,87.4009425 66.4462343,85.6193218 C66.2674843,83.8377011 66.3788593,67.4637586 65.7821093,63.7850805 C65.1853593,60.1050115 63.1063593,53.4444483 63.1063593,53.4444483 L57.6943593,53.8283103 C57.6943593,53.8283103 61.9224843,64.9561379 62.3074843,67.3942184" id="Fill-384" fill="#303030"></path>
                        <path d="M52.9368593,61.1355977 C51.6704843,58.8755402 48.2838593,59.6377011 48.0638593,62.2245977 C47.8369843,64.8824253 47.7806093,66.7224598 48.0102343,67.9477586 C48.5877343,71.0297816 49.4141093,86.0935862 49.3041093,86.4885747 C49.1927343,86.8821724 49.2697343,114.546667 49.2697343,114.546667 L49.3907343,114.620379 L53.0688593,114.534149 C53.0688593,114.534149 53.1128593,91.724954 53.1183593,88.1394598 C53.1238593,84.5553563 54.0052343,65.6724023 54.0052343,65.6724023 L54.0066093,64.6473793 L54.0781093,63.168954 L52.9368593,61.1355977" id="Fill-385" fill="#303030"></path>
                        <polyline id="Fill-386" fill="#B8D1FF" points="53.6477343 22.7772069 54.0547343 24.5184943 50.9761093 23.3418736 52.7526093 22.4948736 53.6477343 22.7772069"></polyline>
                        <polyline id="Fill-387" fill="#B8D1FF" points="54.4218593 22.7883333 54.0299843 24.5184943 57.1099843 23.3418736 55.3321093 22.4948736 54.4218593 22.7883333"></polyline>
                        <polyline id="Fill-388" fill="#3B1B1D" points="44.7157343 53.6363793 54.0217343 53.9381839 63.2589843 53.3623908 63.7127343 55.4625057 54.0066093 56.1662529 44.3747343 55.7517931 44.7157343 53.6363793"></polyline>
                        <path d="M54.8357343,56.1662529 L53.0977343,56.1662529 C52.4487343,56.1662529 51.9179843,55.6294023 51.9179843,54.9729425 L51.9179843,54.9673793 C51.9179843,54.3109195 52.4487343,53.774069 53.0977343,53.774069 L54.8357343,53.774069 C55.4833593,53.774069 56.0141093,54.3109195 56.0141093,54.9673793 L56.0141093,54.9729425 C56.0141093,55.6294023 55.4833593,56.1662529 54.8357343,56.1662529" id="Fill-389" fill="#722C1D"></path>
                        <polyline id="Fill-390" fill="#191919" points="52.5642343 23.2431264 55.5699843 23.2431264 54.7339843 25.8842644 53.5308593 25.8842644 52.5642343 23.2431264"></polyline>
                        <polyline id="Fill-391" fill="#191919" points="53.5308593 25.8842644 51.9179843 52.3498851 54.0684843 54.7184253 56.0141093 52.2469655 54.7339843 25.8842644 53.5308593 25.8842644"></polyline>
                        <polyline id="Fill-392" fill="#303030" points="54.7339843 25.8842644 56.0141093 52.2469655 54.0684843 54.7184253 54.0781093 25.6492184 54.7339843 25.8842644"></polyline>
                        <polyline id="Fill-393" fill="#F2FFFF" points="47.6871093 21.8481494 49.4718593 19.7271724 53.6477343 22.7772069 52.1407343 25.6492184 47.6871093 21.8481494"></polyline>
                        <polyline id="Fill-394" fill="#F2FFFF" points="60.3976093 21.8481494 58.6142343 19.7271724 54.4218593 22.7883333 55.9453593 25.6492184 60.3976093 21.8481494"></polyline>
                        <path d="M39.5952343,48.947977 C38.3742343,49.915977 36.8672343,50.0634023 34.0141093,46.7505057 C31.1596093,43.4376092 25.5303593,34.8925057 25.5303593,34.8925057 L27.5048593,33.3278506 C27.5048593,33.3278506 34.6809843,38.5586667 36.3089843,40.2888276 C37.9383593,42.0175977 42.7907343,46.4181034 39.5952343,48.947977" id="Fill-395" fill="#FFBD95"></path>
                        <path d="M28.9884843,35.1748391 C28.9884843,35.1748391 28.6007343,31.4224483 28.3174843,30.7437356 C28.0356093,30.065023 26.7004843,29.0483448 26.7004843,29.0483448 C26.7004843,29.0483448 25.8383593,29.4405517 25.2333593,29.6867241 C24.6283593,29.9328966 23.4774843,31.2652874 23.4774843,31.2652874 C23.4774843,31.2652874 23.5902343,32.5184023 24.2241093,33.4905747 C24.8579843,34.4613563 26.0459843,35.6685747 26.0459843,35.6685747 L28.9884843,35.1748391" id="Fill-396" fill="#FFBD95"></path>
                        <path d="M59.5313593,10.0207471 C59.5258593,14.0346092 56.5214843,18.029 53.9749843,18.0248276 C51.5426093,18.0206552 48.4364843,14.0179195 48.4419843,10.0040575 C48.4474843,5.9901954 50.9348593,2.73988506 53.9969843,2.74405747 C57.0604843,2.74962069 59.5368593,6.00688506 59.5313593,10.0207471" id="Fill-397" fill="#FFBD95"></path>
                        <path d="M48.4406093,10.8093333 C48.1958593,10.3712299 47.3708593,8.51311494 47.5523593,7.67585057 C47.7324843,6.83858621 48.7073593,5.0208046 49.0318593,4.47421839 C49.3577343,3.92902299 52.2383593,2.47702299 52.6714843,2.44086207 C53.1032343,2.40470115 54.2554843,2.2976092 55.1547343,2.44503448 C56.0539843,2.59106897 57.6379843,3.21275862 57.9968593,3.94154023 C58.3557343,4.67032184 59.2467343,5.50897701 59.5368593,6.09172414 C59.8283593,6.67586207 60.3302343,8.16958621 60.2573593,8.38794253 C60.1844843,8.60629885 59.7871093,10.4254713 59.7499843,10.5715057 C59.7142343,10.7161494 59.4543593,11.1306092 59.4543593,11.1306092 C59.4543593,11.1306092 57.9638593,7.29477011 57.9281093,6.93037931 C57.8937343,6.56598851 50.3339843,6.44498851 49.8664843,6.69950575 C49.3976093,6.95402299 48.4406093,10.8093333 48.4406093,10.8093333" id="Fill-398" fill="#8D3B26"></path>
                        <path d="M23.6837343,25.9538046 C23.6837343,25.9538046 23.8239843,26.2917701 24.5513593,26.4252874 C28.3408593,27.1248621 41.6109843,29.2972989 60.2216093,29.2972989 C78.2629843,29.2972989 93.1363593,27.4350115 96.5917343,26.9677011 C97.0881093,26.8995517 97.2297343,26.1179195 97.2297343,26.1179195 L93.3701093,61.773977 C93.3701093,61.773977 80.5221093,64.5361149 61.8977343,64.5361149 C45.9793593,64.5361149 31.2283593,61.773977 31.2283593,61.773977 L23.6837343,25.9538046" id="Fill-399" fill="#E0F2FF"></path>
                        <path d="M97.5019843,34.6212989 C97.5019843,34.6212989 97.7398593,33.8048966 97.7852343,32.7186782 L97.8691093,32.313954 L97.8223593,31.9537356 L97.8801093,31.7145172 L97.7907343,31.3556897 L97.8484843,31.0149425 C97.8856093,30.6894943 97.6628593,30.676977 97.6642343,30.5768391 C97.6683593,30.2625172 97.6642343,30.1707241 97.6477343,30.1137011 C97.5693593,29.836931 96.6027343,29.0177471 96.4143593,28.9384713 C96.2246093,28.8578046 95.2634843,28.1624023 95.1741093,28.2458506 C95.0833593,28.3292989 95.0242343,28.7924368 95.4986093,29.2347126 C95.9716093,29.6783793 96.5188593,30.2444368 96.3909843,30.1804598 C96.2631093,30.1164828 95.4697343,29.950977 95.1397343,29.9495862 C94.9266093,29.9481954 94.8798593,30.1776782 94.9128593,30.3529195 L95.4271093,30.8007586 L95.0709843,31.1262069 C95.1067343,31.446092 95.5494843,31.5837816 95.6787343,31.6741839 C95.7859843,31.7492874 95.2964843,31.8522069 95.3267343,31.9885057 C95.4381093,32.498931 96.6976093,32.5656897 96.5834843,33.0775057 C96.5257343,33.3361954 96.7746093,34.4377126 97.5019843,34.6212989" id="Fill-400" fill="#FFBD95"></path>
                        <path d="M25.1096093,35.0079425 C25.1096093,35.0079425 24.5926093,34.3361839 24.1567343,33.3403678 L23.9339843,32.9954483 L23.8459843,32.6435747 L23.7071093,32.4405172 L23.6589843,32.0747356 L23.4829843,31.7784943 C23.3303593,31.4892069 23.5338593,31.396023 23.4953593,31.3028391 C23.3784843,31.0121609 23.3496093,30.9245402 23.3441093,30.8661264 C23.3166093,30.5796207 23.9188593,29.4586322 24.0659843,29.3153793 C24.2144843,29.1707356 24.8566093,28.1665747 24.9707343,28.2124713 C25.0848593,28.256977 25.3076093,28.6644828 25.0271093,29.2527931 C24.7466093,29.8397126 24.4413593,30.5698851 24.5376093,30.4627931 C24.6338593,30.3557011 25.3117343,29.9078621 25.6183593,29.7840805 C25.8163593,29.7048046 25.9428593,29.900908 25.9758593,30.0761494 L25.6596093,30.683931 L26.1078593,30.855 C26.1903593,31.1651494 25.8287343,31.4572184 25.7407343,31.5893448 C25.6678593,31.6992184 26.1601093,31.6129885 26.1821093,31.752069 C26.2618593,32.2680575 25.1137343,32.7965632 25.4066093,33.2304943 C25.5523593,33.4488506 25.7201093,34.5670575 25.1096093,35.0079425" id="Fill-401" fill="#FFBD95"></path>
                        <path d="M47.8067343,6.96375862 C47.8067343,6.96375862 47.8026093,0.425586207 53.9873593,0.425586207 L53.9873593,6.96375862 L47.8067343,6.96375862" id="Fill-402" fill="#C0D6FF"></path>
                        <path d="M60.1666093,6.96375862 C60.1666093,6.96375862 60.1707343,0.425586207 53.9873593,0.425586207 L53.9873593,6.96375862 L60.1666093,6.96375862" id="Fill-403" fill="#CEE0FF"></path>
                        <path d="M47.8067343,6.96375862 C47.8067343,6.96375862 49.7853593,8.24051724 53.9873593,8.24051724 C58.1879843,8.24051724 60.1666093,6.96375862 60.1666093,6.96375862 L47.8067343,6.96375862" id="Fill-404" fill="#CEE0FF"></path>
                        <path d="M60.1666093,6.96375862 C60.1666093,4.87198851 56.2767343,5.203 55.4874843,4.28506897 C54.9608593,3.67311494 55.5768593,1.04866667 54.8343593,0.282333333 C54.6858593,0.129344828 53.9873593,0 53.9873593,0 L53.9873593,6.96375862 L60.1666093,6.96375862" id="Fill-405" fill="#E0F2FF"></path>
                        <path d="M47.8067343,6.96375862 C47.8067343,4.87198851 51.6966093,5.203 52.4858593,4.28506897 C53.0124843,3.67311494 52.3964843,1.04866667 53.1389843,0.282333333 C53.2874843,0.129344828 53.9873593,0 53.9873593,0 L53.9873593,6.96375862 L47.8067343,6.96375862" id="Fill-406" fill="#DBEBFF"></path>
                    </g>
                </g>
            </g>
        </g>
    </g>
</svg>