<?xml version="1.0" encoding="UTF-8"?>
<svg width="217px" height="127px" viewBox="0 0 217 127" version="1.1" xmlns="http://www.w3.org/2000/svg" xmlns:xlink="http://www.w3.org/1999/xlink">
    <!-- Generator: Sketch 54.1 (76490) - https://sketchapp.com -->
    <title>violet - icon 5</title>
    <desc>Created with Sketch.</desc>
    <defs>
        <polygon id="path-1" points="0.0335088372 0.4086784 4.45506047 0.4086784 4.45506047 23.8040064 0.0335088372 23.8040064"></polygon>
        <polygon id="path-3" points="0 0.3019776 21.8265823 0.3019776 21.8265823 26.5825984 0 26.5825984"></polygon>
        <polygon id="path-5" points="1.02242326 3.697664 0.582367442 2.450432 4.31476744 0.069632 4.82345581 0.646144 4.67609767 2.077696 4.5146093 2.362368 3.73744651 2.784256 2.30726512 3.110912"></polygon>
    </defs>
    <g id="HD-Desktop" stroke="none" stroke-width="1" fill="none" fill-rule="evenodd">
        <g id="Main-HD-Desktop" transform="translate(-1056.000000, -180.000000)">
            <g id="1-promo" transform="translate(165.000000, 179.000000)">
                <g id="1" transform="translate(570.000000, 0.000000)">
                    <g id="icons/vector/2" transform="translate(321.208333, 0.000000)">
                        <g id="Group-312">
                            <polygon id="Fill-1" fill="#D5D5D5" points="49.7152047 90.74176 188.928274 90.74176 188.928274 82.465792 49.7152047 82.465792"></polygon>
                            <polygon id="Fill-2" fill="#AFB3BC" points="189.009725 82.5793536 49.7149019 82.5793536 75.361274 74.0688896 160.249655 74.0688896"></polygon>
                            <g id="Group-311" transform="translate(0.000000, 0.743424)">
                                <path d="M206.436945,103.19401 C206.436945,103.19401 208.040726,116.41385 207.865107,119.760282 C203.437298,120.144282 201.469159,118.06249 201.521642,117.070234 C201.571098,116.077978 199.086196,103.315866 199.003433,102.566298 C198.919661,101.817754 197.207884,96.2850816 199.197219,95.2610816 C205.800075,91.8542336 206.436945,103.19401 206.436945,103.19401" id="Fill-3" fill="#000000"></path>
                                <path d="M204.217287,95.7259776 C201.675864,94.8340736 194.690482,92.6683136 192.987789,92.4450816 C189.392654,91.9678976 187.594078,93.9503616 188.341971,97.5190016 C189.18171,101.51977 192.75464,116.333978 192.073361,117.976474 C195.304138,119.691674 199.07792,119.028122 199.07792,119.028122 C199.07792,119.028122 198.997175,102.463898 198.697413,101.133722 C198.39664,99.8025216 204.217287,95.7259776 204.217287,95.7259776" id="Fill-5" fill="#000000"></path>
                                <path d="M197.903193,117.921997 C198.353341,119.344333 198.739904,120.095949 198.307923,120.996045 C197.875941,121.896141 195.774574,121.564365 194.556346,120.972493 C193.832676,120.622285 192.2077,121.235661 191.366951,121.214157 C189.57342,121.163981 188.02616,118.121677 189.498732,117.997773 C190.970295,117.873869 192.836495,118.192333 193.505662,117.632205 C194.172811,117.072077 197.903193,117.921997 197.903193,117.921997" id="Fill-7" fill="#000000"></path>
                                <path d="M206.593689,118.567936 C206.757196,119.48032 207.490959,120.387584 206.757196,120.97024 C206.024443,121.547776 205.289671,121.547776 204.392401,121.29792 C203.49614,121.050112 203.169127,120.553472 202.680624,120.139776 C202.191113,119.72608 200.885075,119.48032 200.476308,118.897664 C200.071578,118.320128 199.801085,116.721664 200.537875,116.584448 C201.552224,116.389888 202.822936,116.519936 204.851633,117.033984 L206.593689,118.567936 Z" id="Fill-9" fill="#000000"></path>
                                <path d="M208.900046,68.0450048 C208.639646,68.9123328 208.658823,72.0918528 208.988865,73.4332928 C209.308813,74.7737088 210.899474,76.5841408 210.899474,76.5841408 L203.503307,77.9962368 C203.503307,77.9962368 204.148251,72.9223168 202.770553,71.9556608 C201.92072,71.3627648 208.900046,68.0450048 208.900046,68.0450048" id="Fill-11" fill="#FFBD95"></path>
                                <path d="M202.681835,73.2439552 C203.997966,73.5818752 207.522449,71.8625792 208.180514,69.2820992 C208.832524,66.6995712 207.649621,63.9859712 205.083975,63.7258752 C202.28518,63.4381312 200.541105,63.8856192 200.530003,66.5480192 C200.516882,69.5964672 201.362677,72.9050112 202.681835,73.2439552 Z" id="Fill-13" fill="#FFBD95"></path>
                                <path d="M200.283531,66.5939968 C199.123843,64.4712448 203.990699,60.1131008 207.593908,61.9819008 C207.972396,62.1785088 208.071308,62.3874048 208.373089,62.5758208 C208.658722,62.7560448 208.805071,62.6341888 209.069508,62.7376128 C210.720727,63.3817088 210.96195,66.0482048 210.569331,67.6364288 C210.071745,69.6363008 209.606457,70.9101568 210.401787,71.7815808 C210.94782,72.3775488 204.644727,73.1824128 204.644727,73.1824128 C204.644727,73.1824128 202.820917,70.6357248 202.980387,70.1882368 C203.599089,68.4494848 202.740173,67.4961408 202.456559,68.3061248 C202.240568,68.9235968 202.20928,68.9819648 202.20928,68.9819648 L201.976131,69.1519488 C201.976131,69.1519488 201.607736,67.2380928 201.115196,66.4403968 C200.839657,65.9939328 200.283531,66.5939968 200.283531,66.5939968" id="Fill-15" fill="#8D3B26"></path>
                                <path d="M209.927112,73.7769472 C211.163507,74.4855552 212.369624,76.0614912 214.451814,76.6124032 C214.451814,76.6124032 215.411661,76.6615552 215.573149,77.0588672 C217.754252,82.3703552 213.87954,85.3297152 214.114707,87.4227712 C215.072535,95.9741952 211.69541,98.8219392 211.408768,99.9063552 C211.269484,100.437811 208.297089,101.089075 205.259089,101.140275 C203.611907,101.663539 196.734521,99.5940352 196.175368,99.1311872 C195.908912,98.4113152 196.51954,96.7954432 196.948493,94.9798912 C198.022391,90.4579072 197.364326,90.5961472 197.174577,88.2604032 C197.038321,86.5503232 195.266996,86.3619072 194.748214,85.3952512 C194.223377,84.4183552 197.017126,76.8018432 197.017126,76.8018432 C197.017126,76.8018432 199.874461,76.4014592 202.980084,74.6299392 C203.742107,74.1957632 205.643633,74.8234752 205.643633,74.8234752 L209.927112,73.7769472 Z" id="Fill-17" fill="#CEE0FF"></path>
                                <path d="M209.403789,72.4100096 C209.171649,72.5277696 205.516966,73.6490496 203.29751,73.4217216 C202.963431,73.8518016 203.362105,74.9198336 203.362105,74.9198336 C203.362105,74.9198336 209.972026,74.0340736 210.164803,73.7596416 C210.358589,73.4862336 209.403789,72.4100096 209.403789,72.4100096" id="Fill-19" fill="#D4D5D6"></path>
                                <path d="M209.927112,72.9399296 L211.321968,74.6776576 C211.321968,74.6776576 208.655391,74.8199936 207.547177,75.1118336 C205.181373,75.7395456 202.169614,75.2582656 202.169614,75.2582656 L202.694452,73.9045376 C202.694452,73.9045376 204.825089,74.1124096 207.54314,73.4980096 C208.508033,73.2809216 209.927112,72.9399296 209.927112,72.9399296" id="Fill-21" fill="#F2FFFF"></path>
                                <g id="Group-25" transform="translate(211.953488, 102.400000)">
                                    <mask id="mask-2" fill="white">
                                        <use xlink:href="#path-1"></use>
                                    </mask>
                                    <g id="Clip-24"></g>
                                    <polygon id="Fill-23" fill="#999DAA" mask="url(#mask-2)" points="4.45526233 23.8040064 3.70131349 23.8040064 0.0335088372 0.4086784 1.99054605 0.4086784"></polygon>
                                </g>
                                <polygon id="Fill-26" fill="#999DAA" points="192.234749 126.076006 191.483828 126.076006 194.515772 102.679654 196.44253 102.679654"></polygon>
                                <polygon id="Fill-28" fill="#999DAA" points="211.154222 122.207949 210.741417 122.207949 207.67112 103.364301 209.451529 103.364301"></polygon>
                                <polygon id="Fill-30" fill="#999DAA" points="190.266407 121.822003 189.852593 121.822003 192.131598 100.748083 193.683905 102.978355"></polygon>
                                <path d="M213.543442,101.58295 C212.819773,100.878438 212.539187,100.653158 212.020405,100.29783 C211.787256,100.136038 209.356856,97.8504704 209.356856,97.8504704 L193.130303,98.8161024 C193.130303,98.8161024 192.654921,98.9133824 192.131093,99.1058944 C191.78894,99.2318464 191.612312,100.193382 191.654703,100.988006 C191.70214,101.858406 193.151498,103.449702 194.511028,104.320102 C196.405489,105.533542 201.71341,105.308262 202.470387,105.308262 L203.472624,105.308262 C204.2296,105.308262 211.967921,105.49975 213.859354,104.288358 C214.551735,103.844966 214.147005,102.172774 213.543442,101.58295" id="Fill-32" fill="#44476E"></path>
                                <path d="M191.338791,97.5299584 C192.861828,98.9461504 196.2874,101.135462 197.683266,101.519462 C199.078121,101.90551 204.53441,100.104294 205.295424,98.4321024 C206.058456,96.7558144 198.824787,94.5685504 196.539726,94.5685504 C194.256684,94.5685504 191.338791,97.5299584 191.338791,97.5299584" id="Fill-34" fill="#000000"></path>
                                <path d="M199.362947,85.2979712 C199.80603,84.1439232 204.344863,83.2561152 206.62084,83.0861312 C213.163137,82.5946112 216.473649,83.6995072 216.080021,85.2979712 C213.131849,97.2716032 216.206184,100.103987 213.92516,102.420275 C212.654449,103.708467 192.236263,103.969587 194.515267,102.680371 C196.794272,101.391155 198.062965,100.618035 198.317309,95.7263872 C198.571653,90.8347392 199.362947,85.2979712 199.362947,85.2979712" id="Fill-36" fill="#44476E"></path>
                                <path d="M197.126534,76.75392 C195.746818,76.705792 195.481372,79.73376 194.573,82.660352 C193.590948,85.82144 192.227381,89.232384 192.227381,89.933824 C192.227381,91.28448 193.178144,95.532032 194.700172,94.76096 C196.223209,93.98784 196.984223,92.829696 198.698018,89.740288 C200.411813,86.651904 197.126534,76.75392 197.126534,76.75392" id="Fill-38" fill="#CEE0FF"></path>
                                <path d="M153.657498,118.023987 C152.589656,118.053683 151.784233,118.206259 151.161493,118.422323 C151.072675,118.223667 150.986884,118.021939 150.908159,117.822259 L148.70687,118.429491 C148.70687,118.429491 147.807582,120.485683 147.807582,121.400115 C147.807582,122.315571 150.119893,122.900275 151.427949,121.983795 C151.639903,121.836339 151.780196,121.668403 151.874061,121.488179 C152.717838,121.106227 153.509131,120.934195 154.091498,120.512307 C154.825261,119.979827 154.729377,117.994291 153.657498,118.023987" id="Fill-40" fill="#000000"></path>
                                <path d="M155.164588,101.868954 C154.349072,108.502426 154.588277,114.887066 153.453821,119.924122 C150.624747,120.257946 147.142653,119.953818 147.142653,119.953818 C147.142653,119.953818 147.992486,107.153818 147.985421,103.474586 C147.973309,99.0672896 149.612416,99.6478976 149.612416,99.6478976 C149.294486,96.2502656 155.933677,95.5908096 155.164588,101.868954" id="Fill-42" fill="#000000"></path>
                                <path d="M153.474209,119.903949 C154.608665,114.865869 155.062851,102.143693 155.062851,102.143693 C155.062851,102.143693 154.815572,101.450445 154.942744,99.9697408 C155.307102,95.7303808 154.28266,95.1170048 153.778009,102.181581 C153.337953,108.364493 152.342781,116.374221 152.065223,119.929549 C153.693227,119.797453 152.609237,120.117965 153.474209,119.903949" id="Fill-44" fill="#26282D"></path>
                                <path d="M143.109179,118.275994 L140.72016,117.615514 C140.635379,117.833626 140.541513,118.051738 140.446639,118.265754 C139.771416,118.032282 138.89736,117.868442 137.742718,117.835674 C136.576974,117.801882 136.472007,119.956378 137.269355,120.533914 C137.902188,120.991642 138.758076,121.17801 139.675532,121.591706 C139.775453,121.788314 139.930886,121.97161 140.159997,122.132378 C141.577058,123.121562 144.084165,122.487706 144.084165,121.497498 C144.084165,120.506266 143.109179,118.275994 143.109179,118.275994" id="Fill-46" fill="#000000"></path>
                                <path d="M143.184069,101.325926 C142.630971,99.4612224 143.50099,96.0154624 143.50099,96.0154624 C142.744013,95.9499264 137.631897,93.3766144 137.631897,93.3766144 C135.729362,93.3766144 134.45865,94.3750144 134.45865,96.6923264 C134.45865,99.0096384 135.950399,103.321702 136.332925,105.831526 C136.712422,108.343398 137.220101,116.421734 136.839594,117.19383 C136.681134,117.51639 137.42398,117.85943 138.341436,118.152294 C140.724399,121.312358 144.300357,119.581798 144.300357,119.581798 C144.300357,119.581798 145.087613,107.76279 143.184069,101.325926" id="Fill-48" fill="#000000"></path>
                                <polygon id="Fill-50" fill="#AFB3BC" points="156.46568 122.721997 156.052875 122.721997 152.982578 103.878349 154.762987 103.878349"></polygon>
                                <polygon id="Fill-52" fill="#AFB3BC" points="135.544256 122.401997 135.130442 122.401997 137.409447 101.326029 138.961753 103.558349"></polygon>
                                <path d="M157.204893,79.3129984 C159.488944,79.2157184 159.549502,87.0616064 159.87046,94.1825024 C159.917898,95.2341504 156.724465,98.0071424 154.635209,98.3337984 C153.864102,98.4536064 150.0772,97.3497344 150.0772,97.3497344 L155.412372,93.5199744 L154.786605,88.4921344 L155.421456,83.7233664 L157.204893,79.3129984 Z" id="Fill-54" fill="#000000"></path>
                                <path d="M143.827701,69.822976 C143.414896,69.67552 143.06164,69.365248 143.028333,70.046208 C142.995027,70.73024 143.465361,71.6672 143.774208,71.904768 C144.082045,72.14848 144.477692,72.176128 144.462552,72.055296 C144.447413,71.939584 143.827701,69.822976 143.827701,69.822976" id="Fill-56" fill="#CC9483"></path>
                                <path d="M152.252953,69.6840192 C152.641534,69.4843392 152.956437,69.1310592 153.073516,69.8028032 C153.188576,70.4755712 152.837339,71.4637312 152.567855,71.7422592 C152.290297,72.0218112 151.900707,72.1016832 151.900707,71.9798272 C151.900707,71.8630912 152.252953,69.6840192 152.252953,69.6840192" id="Fill-58" fill="#CC9483"></path>
                                <path d="M148.20989,79.763968 L144.618792,78.360064 C144.618792,78.360064 145.606899,73.18784 145.606899,72.668672 L148.013076,72.472064 L148.013076,72.47104 L148.025187,72.472064 L148.037299,72.47104 L148.037299,72.472064 L150.399067,72.587776 C150.399067,73.107968 151.244862,77.650432 151.244862,77.650432 L148.20989,79.763968 Z" id="Fill-60" fill="#E0AC9B"></path>
                                <polygon id="Fill-62" fill="#999DAA" points="159.055953 126.717952 158.300995 126.717952 154.632181 103.322624 156.590228 103.322624"></polygon>
                                <polygon id="Fill-64" fill="#999DAA" points="136.402768 126.397952 135.651847 126.397952 138.684801 103.0016 140.61055 103.0016"></polygon>
                                <path d="M157.331056,102.09792 C156.608395,101.393408 156.327809,101.168128 155.808019,100.809728 C155.57386,100.649984 153.145479,98.36544 153.145479,98.36544 L138.440953,99.089408 C138.440953,99.089408 137.964563,99.185664 137.440735,99.380224 C137.099591,99.506176 136.921953,100.465664 136.965353,101.262336 C137.012791,102.130688 137.847484,103.996416 138.298642,104.834048 C138.868898,105.895936 139.952888,105.895936 140.708856,105.895936 L148.006112,105.895936 C148.763088,105.895936 154.825967,105.67168 157.015144,105.285632 C157.819558,105.14432 157.935628,102.687744 157.331056,102.09792" id="Fill-66" fill="#44476E"></path>
                                <path d="M157.584391,82.1139456 C157.584391,82.1139456 157.883144,79.4740736 156.951558,79.0552576 C155.360898,78.3415296 154.158819,78.5401856 151.875777,76.8024576 C151.804116,76.5812736 151.572986,76.0283136 151.446823,75.6443136 C150.003521,74.2270976 144.595679,75.5961856 144.595679,75.5961856 L144.071851,76.8495616 C142.295479,77.6390656 140.539293,78.5043456 139.059656,78.7982336 C136.891674,79.2242176 138.362228,85.2975616 138.362228,85.2975616 C138.362228,85.2975616 140.928884,91.6402176 140.882456,93.3001216 C140.849149,94.5524736 139.947842,97.4585856 139.947842,102.678938 C139.947842,103.013786 156.062363,102.678938 156.062363,102.678938 C156.062363,99.3017856 155.014707,94.3620096 154.988465,93.3820416 C154.943047,91.7211136 155.47293,88.3296256 155.707088,87.6169216 C155.939228,86.9042176 157.584391,82.1139456 157.584391,82.1139456" id="Fill-68" fill="#000000"></path>
                                <path d="M152.931103,67.926016 C152.756494,66.57024 152.351764,66.57024 152.174127,65.949696 C152.000527,65.332224 152.282122,65.332224 151.696727,64.715776 C151.109313,64.100352 148.932247,63.60576 148.224727,63.666176 C147.571708,63.725568 146.872261,63.901696 146.83088,64.064512 C146.417066,64.121856 145.732759,63.934464 145.452173,64.121856 C144.807229,64.553984 144.172378,65.14176 143.642494,66.316288 C143.114629,67.487744 143.057099,68.475904 143.174178,69.21728 C143.290247,69.95456 143.380075,70.001664 143.380075,70.001664 L144.309643,72.800256 C144.309643,72.800256 144.886964,74.269696 144.119894,74.195968 C143.854447,74.172416 145.815522,75.904 147.389024,75.572224 C147.371866,75.621376 147.361773,75.652096 147.361773,75.652096 C148.230782,75.696128 148.912061,75.652096 149.324866,75.261952 C149.602424,75.001856 149.694271,75.001856 150.091936,75.219968 C150.990215,75.708416 152.566745,74.023936 152.25588,73.847808 C151.733061,73.547776 152.541513,71.054336 152.541513,71.054336 C152.541513,71.054336 153.10874,69.282816 152.931103,67.926016" id="Fill-70" fill="#5B250E"></path>
                                <path d="M137.029646,98.236928 C137.410153,98.912768 138.93319,102.77632 141.026483,102.871552 C143.120786,102.967808 139.789079,94.278144 139.789079,94.278144 L137.029646,98.236928 Z" id="Fill-72" fill="#000000"></path>
                                <path d="M139.757891,79.1839744 C138.678947,78.7969024 138.488189,80.6636544 137.981519,81.8217984 C137.47384,82.9799424 136.64924,86.6520064 135.316961,90.1264384 C134.597328,92.0054784 134.839561,96.4015104 136.236435,96.5295104 C137.6323,96.6595584 139.820468,96.0492544 140.835826,94.5040384 C141.852193,92.9588224 142.738361,88.4521984 142.865533,86.6499584 C142.993714,84.8477184 139.757891,79.1839744 139.757891,79.1839744" id="Fill-74" fill="#000000"></path>
                                <path d="M138.552481,79.0549504 C137.790458,79.5055104 137.600709,80.9882624 137.474547,81.8238464 C137.347374,82.6604544 136.314858,88.3241984 135.553844,89.3543424 C134.791821,90.3834624 134.777691,93.2322304 135.031026,94.5204224 C135.28436,95.8065664 136.077672,96.7885824 136.902272,96.7885824 C137.726872,96.7885824 139.805026,95.6457984 140.169384,94.8255744 C140.254165,94.6361344 138.013514,96.7404544 136.839695,96.2735104 C136.408723,96.1014784 135.380244,91.8017024 136.205853,90.3199744 C137.029444,88.8402944 137.91763,85.3638144 138.171974,83.3680384 C138.425309,81.3743104 138.806826,80.0216064 139.187333,79.7000704 C139.56784,79.3764864 138.552481,79.0549504 138.552481,79.0549504" id="Fill-76" fill="#26282D"></path>
                                <path d="M150.978507,82.76992 C149.819828,82.768896 148.684363,82.620416 147.656893,82.660352 C140.930902,82.9184 140.178972,84.796416 140.279902,86.441984 C141.026786,98.527232 137.366047,101.248 139.503749,103.51616 C139.397772,103.816192 155.427512,104.223744 156.697214,102.935552 C158.981265,100.61824 156.284409,100.03968 157.204893,86.20032 C157.307842,84.65408 156.636656,82.601984 150.978507,82.76992" id="Fill-78" fill="#44476E"></path>
                                <path d="M172.050721,93.6039424 C171.211991,94.4456704 171.305856,98.6840064 172.118344,103.496806 C172.61593,106.460262 174.328716,111.845478 174.461944,113.363046 C174.666833,115.758182 174.175302,116.904038 173.478884,120.735846 C173.374926,121.30007 176.982172,117.72631 177.08613,117.05559 C177.233488,116.117606 177.785577,115.638374 177.570595,114.972774 C177.310195,114.155622 176.7248,113.516646 176.873167,112.01239 C177.232479,108.403814 177.05787,107.534438 177.190088,102.67863 C177.329372,97.5975424 175.460144,90.1776384 172.050721,93.6039424" id="Fill-80" fill="#CC9483"></path>
                                <path d="M177.760546,114.843955 C177.52336,114.071859 175.64303,114.415923 175.262523,115.977523 C175.262523,115.977523 174.811365,116.935987 173.954467,118.866227 C173.833351,119.141683 173.70416,119.370035 173.576988,119.575859 C172.781658,119.647539 171.903565,119.779635 171.885397,120.228147 C171.860165,120.794419 172.130658,121.260339 172.457672,121.478451 C172.965351,121.854259 174.34103,121.829683 175.54109,121.474355 C175.876179,121.376051 176.381839,119.770419 176.381839,119.091507 C176.381839,118.415667 177.285165,117.804339 177.760546,117.225779 C178.237946,116.648243 178.112793,115.983667 177.760546,114.843955" id="Fill-82" fill="#000000"></path>
                                <path d="M177.9508,116.775936 C177.666176,117.403648 177.35632,119.189504 177.452204,121.505792 C177.166572,121.55392 176.9526,121.505792 176.9526,121.505792 C176.9526,121.505792 177.142348,117.644288 176.856716,117.161984 C176.572093,116.677632 177.9508,116.775936 177.9508,116.775936" id="Fill-84" fill="#000000"></path>
                                <path d="M166.467967,94.0539904 C165.630246,94.8957184 165.976437,98.8780544 166.787916,103.68983 C167.286511,106.653286 169.317227,112.232038 169.450455,113.749606 C169.655344,116.143718 168.336186,117.459558 168.955897,120.537702 C169.068939,121.103974 169.86326,120.88791 170.84632,119.093862 C171.340879,118.185574 172.710502,116.475494 172.49552,115.809894 C172.237139,114.991718 171.711293,113.646182 171.860669,112.141926 C172.218972,108.534374 172.270446,107.567718 172.403674,102.714982 C172.544976,97.6328704 169.876381,90.6276864 166.467967,94.0539904" id="Fill-86" fill="#CC9483"></path>
                                <path d="M172.638135,115.069952 C172.400949,114.296832 170.520619,114.64192 170.139102,116.20352 C170.139102,116.20352 169.687944,117.161984 168.832056,119.094272 C168.71094,119.365632 168.582758,119.596032 168.454577,119.801856 C167.658237,119.873536 166.780144,120.005632 166.762986,120.452096 C166.737753,121.020416 167.008247,121.488384 167.33526,121.704448 C167.84193,122.080256 169.218619,122.05568 170.418679,121.700352 C170.753767,121.6 171.258419,119.994368 171.258419,119.317504 C171.258419,118.641664 172.162753,118.032384 172.638135,117.451776 C173.113516,116.872192 172.989372,116.209664 172.638135,115.069952" id="Fill-88" fill="#000000"></path>
                                <path d="M172.828388,116.999987 C172.543765,117.627699 172.2329,119.413555 172.329793,121.731891 C172.043151,121.780019 171.830188,121.731891 171.830188,121.731891 C171.830188,121.731891 172.019937,117.870387 171.734305,117.386035 C171.448672,116.903731 172.828388,116.999987 172.828388,116.999987" id="Fill-90" fill="#000000"></path>
                                <path d="M169.6398,93.6679424 C166.721907,92.2517504 164.501442,93.0228224 164.246089,93.7959424 C163.992754,94.5680384 163.104568,96.4020224 162.630196,99.2016384 C162.512107,99.8887424 169.291591,103.547494 169.291591,103.547494 L169.6398,93.6679424 Z" id="Fill-92" fill="#000000"></path>
                                <path d="M175.114054,77.1539968 C171.949892,79.0361088 170.62165,78.7555328 169.430673,79.3873408 C168.241715,80.0119808 168.260892,83.5365888 168.260892,83.5365888 C168.260892,83.5365888 170.155352,86.0402688 170.308766,86.5911808 C170.424836,87.0038528 171.267603,89.5915008 171.048585,91.8504448 C170.889115,93.4898688 169.47811,94.5486848 168.56772,97.8070528 C168.469817,98.1582848 179.21485,97.0718208 179.21485,97.0718208 L180.167631,83.9758848 C180.167631,83.9758848 175.663115,81.8756608 174.982845,78.0807168 L175.114054,77.1539968 Z" id="Fill-94" fill="#000000"></path>
                                <path d="M181.692283,77.8579968 C184.465846,79.4155008 184.669725,79.6059648 185.754725,80.4077568 C186.842753,81.2023808 187.912613,93.0234368 187.912613,93.0234368 C187.912613,93.0234368 187.46852,100.167885 184.897827,95.2444928 C184.801944,95.0601728 184.713125,86.8538368 184.675781,86.9408768 C184.50319,87.3299968 183.527195,90.0108288 183.850172,93.7033728 C183.988446,95.3356288 185.521576,96.1312768 185.329809,98.7609088 C185.311641,99.0210048 177.252362,96.5357568 177.252362,96.5357568 L176.657883,78.8717568 L181.692283,77.8579968 Z" id="Fill-96" fill="#26282D"></path>
                                <path d="M168.993241,80.1619968 C166.132879,88.4359168 166.023874,92.1858048 165.61006,94.3024128 C165.252767,96.1404928 170.741353,98.5581568 170.741353,98.5581568 L173.510879,93.4105088 C173.510879,93.4105088 170.06512,93.2323328 170.085307,92.7664128 C170.139809,91.2324608 171.01992,87.0770688 171.080479,86.9009408 C171.242976,86.4299008 168.993241,80.1619968 168.993241,80.1619968" id="Fill-98" fill="#000000"></path>
                                <polygon id="Fill-100" fill="#999DAA" points="187.860433 126.976 187.105474 126.976 183.43666 103.580672 185.393698 103.580672"></polygon>
                                <polygon id="Fill-102" fill="#999DAA" points="163.684513 126.848 162.933592 126.848 165.965536 103.452672 167.893304 103.452672"></polygon>
                                <polygon id="Fill-104" fill="#999DAA" points="182.606005 122.979942 182.192191 122.979942 179.121893 104.136294 180.902302 104.136294"></polygon>
                                <polygon id="Fill-106" fill="#999DAA" points="161.716172 122.593997 161.303367 122.593997 163.581362 101.520077 165.133669 103.750349"></polygon>
                                <path d="M184.993207,102.355968 C184.269537,101.651456 183.988951,101.426176 183.470169,101.0688 C183.23702,100.908032 180.80662,98.623488 180.80662,98.623488 L164.580067,99.58912 C164.580067,99.58912 164.105695,99.6864 163.580858,99.877888 C163.238704,100.00384 163.062076,100.9664 163.104467,101.762048 C163.151904,102.6304 164.601262,104.221696 165.959783,105.092096 C167.854244,106.304512 173.164183,106.080256 173.920151,106.080256 L174.922388,106.080256 C175.679365,106.080256 183.417686,106.271744 185.311137,105.059328 C186.002509,104.615936 185.596769,102.945792 184.993207,102.355968" id="Fill-108" fill="#44476E"></path>
                                <path d="M182.329052,93.9879424 C182.517792,97.1377664 183.470573,101.647462 181.69521,102.419558 C179.917829,103.193702 169.894447,103.837798 167.101708,102.16151 C166.57788,101.850214 164.274652,100.628582 164.343285,99.4919424 C164.445224,97.7449984 167.210713,95.8014464 167.736559,94.5675264 C168.607587,92.5318144 182.329052,93.9879424 182.329052,93.9879424" id="Fill-110" fill="#000000"></path>
                                <path d="M170.814729,86.0720128 C171.255794,84.9159168 175.795636,84.0291328 178.072622,83.8581248 C184.612901,83.3676288 187.925432,84.4725248 187.530794,86.0720128 C184.581613,98.0435968 187.657967,100.875981 185.374925,103.194317 C184.104213,104.482509 163.687036,104.742605 165.965032,103.453389 C168.244036,102.162125 169.512729,101.391053 169.766064,96.4983808 C170.021418,91.6077568 170.814729,86.0720128 170.814729,86.0720128" id="Fill-112" fill="#44476E"></path>
                                <path d="M173.104332,84.5949952 C173.49796,84.8684032 173.904708,85.0967552 174.323569,85.2780032 C174.51029,84.7404032 175.150187,82.8900352 175.096694,83.1101952 C175.048248,83.3057792 174.963467,84.8038912 174.926122,85.5104512 C175.06036,85.5544832 175.199643,85.5913472 175.336908,85.6302592 L175.350029,85.6210432 L176.111043,83.1757312 L175.890006,85.7562112 C175.910192,85.7603072 175.929369,85.7644032 175.947536,85.7684992 C176.11508,85.0895872 176.493569,83.6037632 176.873067,82.4026112 C176.873067,82.8859392 176.479439,85.0957312 176.345201,85.8299392 C176.646983,85.8719232 176.950783,85.8995712 177.253573,85.9098112 C177.539206,84.2099712 177.64922,78.0987392 177.760243,81.4380032 C177.85108,84.1536512 177.651239,85.3844992 177.598755,85.9139072 C178.636318,85.9159552 179.669843,85.7644032 180.634736,85.5288832 C180.504536,84.2980352 180.130085,80.7529472 180.235053,81.5014912 C180.356169,82.3616512 181.052587,85.1479552 181.117183,85.4029312 C181.307941,85.3517312 181.494662,85.2964352 181.676336,85.2380672 C181.616787,84.8059392 181.414927,83.3836032 181.376573,83.1122432 C181.428048,83.4655232 181.941783,84.6042112 182.163829,85.0803712 C182.187043,85.0721792 182.213285,85.0619392 182.238518,85.0537472 C182.199155,84.7014912 182.122448,84.0215552 182.043722,83.3897472 C181.919578,82.9299712 181.822685,82.4671232 181.822685,82.1445632 C181.822685,81.6940032 181.93169,82.4865792 182.043722,83.3897472 C182.222369,84.0481792 182.457536,84.7014912 182.545346,84.9441792 C182.736104,84.8735232 182.922825,84.8038912 183.100462,84.7322112 L183.153955,84.1413632 L183.331592,84.6369792 C183.52336,84.5571072 183.707053,84.4782592 183.880653,84.4004352 C183.746415,83.8822912 183.242773,81.9397632 183.408299,82.2735872 C183.556667,82.5766912 184.128941,83.6979712 184.371173,84.1761792 C184.748653,83.9939072 185.063555,83.8300672 185.308815,83.6979712 C185.189718,83.1255552 184.927299,81.8762752 184.698187,80.8358912 C184.467057,80.0740352 184.295476,79.4176512 184.295476,79.2476672 C184.295476,79.0623232 184.480178,79.8497792 184.698187,80.8358912 C184.99896,81.8281472 185.398643,82.9975552 185.651978,83.5044352 C185.802364,83.4184192 185.882099,83.3682432 185.882099,83.3682432 C185.882099,83.3682432 183.955341,74.4737792 183.598048,71.3321472 C183.027792,66.3104512 181.249401,65.0888192 181.249401,65.0888192 C179.727373,63.8323712 177.859155,64.9864192 177.189987,64.8297472 C174.969522,64.3156992 173.268848,67.2023552 173.065978,69.4664192 C172.685471,73.7129472 172.559308,79.4422272 171.798294,83.4317312 C172.042546,83.7102592 172.300927,83.9519232 172.564355,84.1761792 C172.887332,83.2801792 173.537322,81.4881792 173.954164,80.4078592 C173.954164,81.7011712 173.274904,84.0287232 173.104332,84.5949952" id="Fill-114" fill="#BA784A"></path>
                                <path d="M174.843057,65.4729216 C172.369257,67.5977216 172.559006,74.8056576 171.98875,76.0938496 C171.416475,77.3820416 169.958033,79.0552576 169.51394,79.0552576 C170.465713,79.3757696 170.908796,78.9272576 171.542638,78.4756736 C172.178499,78.0240896 171.66981,83.1102976 171.797992,83.4318336 C171.924154,83.7543936 174.018457,78.4756736 173.953861,69.9160576 C173.933675,67.1399936 174.843057,65.4729216 174.843057,65.4729216" id="Fill-116" fill="#A0593A"></path>
                                <path d="M180.775635,64.7969792 C181.979733,65.1840512 182.773044,67.0180352 183.344309,69.7224192 C183.915574,72.4247552 185.468891,82.0483072 186.229905,83.0139392 C184.676588,81.2772352 184.581714,79.0223872 184.263784,78.1212672 C184.263784,78.1212672 184.48684,81.8240512 184.676588,82.5306112 C184.106333,82.0810752 183.66123,79.3756672 183.470472,76.8658432 C183.279714,74.3560192 182.285551,67.7624832 182.043319,66.6964992 C181.757686,65.4420992 180.775635,64.7969792 180.775635,64.7969792" id="Fill-118" fill="#A0593A"></path>
                                <path d="M101.056496,95.7919232 C101.564175,94.1832192 101.564175,93.3138432 101.278543,92.5417472 C100.575059,90.6412032 97.8842591,91.6078592 96.5509707,92.7660032 L96.1139428,95.4386432 C94.9219567,96.2537472 94.014594,101.906227 93.3797428,106.153779 C93.0305242,108.495667 93.0941102,112.043827 92.2382219,115.423027 C92.0757242,116.064051 91.5458405,117.083955 91.3187474,117.516083 C90.9685195,118.175539 91.2208451,119.253811 91.8567056,119.671603 C92.1938126,119.891763 93.0628219,119.929651 94.7756079,120.124211 C96.9405614,120.533811 96.8931242,117.910323 96.8931242,117.910323 C96.8931242,117.910323 95.55378,117.696307 95.0289428,117.564211 C94.7756079,117.499699 94.3940916,116.920115 94.7120219,115.873587 C96.0483381,111.471411 100.81931,100.282163 101.056496,95.7919232" id="Fill-120" fill="#FFBD95"></path>
                                <path d="M91.7618312,117.039923 C93.2848684,116.557619 93.7592405,118.255411 94.4576777,118.769459 C95.1561149,119.285555 96.3460823,118.714163 96.2976358,118.489907 C96.1311009,117.715763 94.8079056,117.482291 94.8079056,117.482291 C94.8079056,117.482291 94.8936963,117.407539 95.5134079,117.499699 C96.3218591,117.619507 97.2574823,117.048115 97.5108172,117.499699 C97.7641521,117.952307 96.9001893,120.193843 96.2017521,120.516403 C95.5053335,120.839987 94.7271614,120.491827 94.7271614,120.491827 C94.3476637,120.252211 93.3797428,120.187699 93.3797428,120.187699 C93.3797428,120.187699 91.8567056,120.573747 91.1895567,120.090419 C90.5244265,119.608115 90.8726358,117.910323 91.3500358,117.233459 L91.7618312,117.039923 Z" id="Fill-122" fill="#000000"></path>
                                <polygon id="Fill-124" fill="#AFB3BC" points="80.9089042 122.271949 81.3217088 122.271949 84.3920065 103.428301 82.6115972 103.428301"></polygon>
                                <polygon id="Fill-126" fill="#AFB3BC" points="101.830227 121.950003 102.244041 121.950003 99.9650367 100.875059 98.4127298 103.105331"></polygon>
                                <polygon id="Fill-128" fill="#999DAA" points="78.3186307 126.265958 79.0735888 126.265958 82.7413935 102.871654 80.7843563 102.871654"></polygon>
                                <polygon id="Fill-130" fill="#999DAA" points="100.970807 125.945958 101.722737 125.945958 98.6897833 102.549606 96.7630251 102.549606"></polygon>
                                <path d="M93.632674,99.4599936 C94.1413623,97.8512896 94.1413623,96.9819136 93.8557298,96.2077696 C93.1532553,94.3082496 90.3332647,94.9543936 89.0019949,96.1115136 L88.5629484,98.7862016 C87.3719716,99.6002816 86.9076926,103.065498 86.7815298,106.796954 C86.7017949,109.164442 86.7179437,111.816602 85.45026,115.552154 C85.2362879,116.17577 84.4712367,116.794266 84.2431344,117.226394 C83.8949251,117.88585 84.1472507,118.964122 84.7821019,119.383962 C85.1192088,119.604122 86.5907716,119.929754 88.304567,120.124314 C90.4685112,120.533914 90.39786,118.47977 90.39786,118.47977 C90.39786,118.47977 89.0504414,117.808026 88.5256042,117.67593 C88.2722693,117.612442 87.6697158,117.724058 87.9866367,116.679578 C89.3239623,112.278426 93.3954879,103.950234 93.632674,99.4599936" id="Fill-132" fill="#FFBD95"></path>
                                <path d="M84.687833,116.749926 C85.8303633,116.678246 86.988033,117.950054 87.6864702,118.46615 C88.3828888,118.980198 89.8988609,118.705766 89.8272005,118.489702 C89.6657121,117.998182 88.1144144,117.612134 88.1144144,117.612134 C88.1144144,117.612134 87.9731121,117.583462 88.9218563,117.627494 C89.9382237,117.675622 90.7860377,117.04791 91.0403819,117.499494 C91.2937167,117.952102 90.6679493,119.639654 89.9685028,119.962214 C89.2710749,120.28375 88.6846702,120.252006 88.6846702,120.252006 C87.9236563,120.059494 86.3057447,119.897702 86.3057447,119.897702 C86.3057447,119.897702 84.7827074,120.28375 84.1175772,119.800422 C83.4504284,119.318118 83.8006563,117.620326 84.2750284,116.943462 L84.687833,116.749926 Z" id="Fill-134" fill="#000000"></path>
                                <path d="M80.0435284,101.647974 C80.7661888,100.941414 81.0467749,100.716134 81.5655563,100.359782 C81.7997144,100.199014 84.2291051,97.9144704 84.2291051,97.9144704 L99.5180167,98.1878784 C99.5180167,98.1878784 99.9933981,98.2851584 100.516217,98.4776704 C100.85837,98.6036224 101.037017,99.5661824 100.993617,100.359782 C100.94618,101.230182 99.5271005,103.544422 99.0759423,104.382054 C98.5046772,105.44599 97.4216958,105.44599 96.6647191,105.44599 L89.3684726,105.44599 C88.6114958,105.44599 82.5486167,105.218662 80.35944,104.833638 C79.555026,104.692326 79.4389563,102.23575 80.0435284,101.647974" id="Fill-136" fill="#44476E"></path>
                                <path d="M91.1596814,101.711974 C91.9206953,102.872166 96.8006721,103.607398 97.6313279,102.486118 C100.295886,98.8795904 101.246649,97.4019584 101.246649,97.4019584 C101.246649,97.4019584 101.119477,94.5685504 100.358463,93.0233344 C99.6862674,91.6583424 95.9185419,91.3490944 93.2529744,92.1222144 C90.5894256,92.8943104 91.1596814,101.711974 91.1596814,101.711974" id="Fill-138" fill="#000000"></path>
                                <path d="M96.2978377,87.8739456 C97.1860237,89.6761856 97.8218842,92.1860096 98.836233,92.7021056 C99.8515912,93.2161536 100.929526,93.0226176 100.929526,92.5075456 C100.929526,91.9914496 100.898238,89.6444416 100.010052,87.9702016 C99.1218656,86.2959616 97.7249912,81.8241536 97.7249912,81.8241536 L96.2978377,87.8739456 Z" id="Fill-140" fill="#FFBD95"></path>
                                <path d="M86.6385116,76.0779776 C85.6090233,77.2678656 82.8526186,78.0583936 82.3086047,78.8304896 C81.7656,79.6015616 83.8185209,88.2594816 82.7315023,93.9242496 C82.5114744,95.0762496 94.2052512,96.1115136 94.2052512,96.1115136 L95.7747163,86.0722176 L97.2018698,78.8304896 C97.2018698,78.8304896 94.2688372,77.4777856 92.5863302,76.4158976 C91.0400791,75.4400256 86.6385116,76.0779776 86.6385116,76.0779776" id="Fill-142" fill="#CEE0FF"></path>
                                <path d="M96.6023442,78.7970048 C97.4481395,78.7970048 97.5692558,78.5399808 98.0517023,79.8281728 C98.5351581,81.1153408 100.48614,87.6167168 100.48614,87.6167168 C100.48614,87.6167168 97.6197209,89.9012608 96.7739256,90.4163328 C95.9291395,90.9324288 94.6705395,85.7499648 94.6705395,84.9758208 C94.6705395,84.2037248 96.6023442,78.7970048 96.6023442,78.7970048" id="Fill-144" fill="#CEE0FF"></path>
                                <path d="M83.0605349,78.4759808 C81.9735163,78.3479808 81.1277209,78.9900288 81.007614,80.5362688 C80.887507,82.0814848 81.2488372,87.6162048 82.3358558,87.8742528 C83.4218651,88.1323008 85.1134558,86.4580608 85.1134558,86.4580608 L83.0605349,78.4759808 Z" id="Fill-146" fill="#CEE0FF"></path>
                                <path d="M86.3959763,82.3189504 C87.5546553,82.3169024 88.6901205,82.1684224 89.7175902,82.2083584 C96.4435809,82.4664064 97.1955112,84.3454464 97.0945809,85.9899904 C96.3476972,98.0762624 99.6723391,100.99159 97.5346367,103.257702 C97.6416228,103.559782 81.9469716,103.77175 80.6772693,102.483558 C78.3932181,100.166246 81.8329205,94.9540864 79.1683623,86.4579584 C78.7040833,84.9803264 80.7378274,82.1520384 86.3959763,82.3189504" id="Fill-148" fill="#44476E"></path>
                                <path d="M92.4922633,75.836928 C92.7445888,77.12512 96.6152633,78.540288 96.6152633,78.540288 L95.3465702,79.313408 C95.3465702,79.313408 90.2072028,77.255168 90.525133,76.030464 C90.842054,74.807808 92.4922633,75.836928 92.4922633,75.836928" id="Fill-150" fill="#B8D1FF"></path>
                                <path d="M95.6639958,79.699968 C95.0513493,79.827968 97.0114144,78.06976 97.631126,78.829568 C98.6767633,80.116736 100.739777,87.358464 100.739777,87.358464 L99.9464656,88.068096 C99.9464656,88.068096 97.7249912,79.263744 95.6639958,79.699968" id="Fill-152" fill="#B8D1FF"></path>
                                <path d="M94.2614693,67.987968 C94.2140321,67.43808 94.0151995,66.38848 93.8133391,65.923584 C93.142153,64.382464 91.199246,64.223744 90.8469995,64.43776 C90.8469995,64.43776 89.1796321,74.308096 89.075674,75.033088 C88.9898833,75.61984 89.9345902,75.649536 91.1497902,75.033088 C91.2164042,76.1984 91.7493158,76.661248 91.9249344,76.719616 C92.5819902,76.941824 95.4100553,76.429824 96.4344972,75.05664 C95.4504274,75.181568 94.6752833,70.13632 94.2614693,67.987968" id="Fill-154" fill="#873F26"></path>
                                <path d="M91.4474335,64.3279872 C90.7762474,63.9368192 90.3543591,63.7740032 89.1714567,63.7996032 C88.491187,63.8180352 87.3436102,64.0904192 86.3928474,64.7775232 C86.3837637,64.7754752 86.3635777,64.7724032 86.3635777,64.7724032 C86.3464195,64.7918592 86.3272428,64.8143872 86.3100847,64.8358912 C85.8044242,65.2219392 85.3643684,65.7462272 85.0969033,66.4599552 C84.6568474,67.2402432 84.5700474,68.3410432 84.3823172,70.1084672 C84.0553033,73.2142592 84.4247079,74.5997312 83.1933591,75.5141632 C83.9331777,76.8863232 90.6147591,78.0516352 95.001187,76.1377792 C95.001187,76.1377792 94.0161079,74.6406912 93.632573,71.2020992 C93.3610707,66.8756992 93.2510567,65.3796352 91.4474335,64.3279872" id="Fill-156" fill="#5B250E"></path>
                                <path d="M12.6784521,103.064986 C12.6784521,103.064986 12.5977079,116.283802 12.7733265,119.630234 C17.2011358,120.014234 19.171294,117.932442 19.1188102,116.940186 C19.0673358,115.949978 20.0281916,103.187866 20.112973,102.438298 C20.1957358,101.687706 21.9075126,96.1570816 19.9181777,95.1320576 C13.3173405,91.7252096 12.6784521,103.064986 12.6784521,103.064986" id="Fill-158" fill="#000000"></path>
                                <path d="M13.8839628,94.953984 C16.425386,94.06208 22.1420744,91.059712 23.8447674,90.835456 C27.4409116,90.359296 29.999493,93.105664 29.7592791,96.748032 C29.4272186,101.775872 31.0764186,115.809792 31.3570047,117.20448 C28.1262279,118.91968 24.3514372,118.256128 24.3514372,118.256128 C24.3514372,118.256128 20.5453581,100.745728 21.8150605,98.558464 C22.4973488,97.37984 13.8839628,94.953984 13.8839628,94.953984" id="Fill-160" fill="#000000"></path>
                                <path d="M24.7664623,117.150003 C24.3173228,118.570291 23.9297507,119.323955 24.3617321,120.224051 C24.7937135,121.122099 26.8950809,120.792371 28.1133088,120.200499 C28.8359693,119.850291 30.4619553,120.465715 31.3027042,120.442163 C33.0962344,120.391987 34.6434949,117.349683 33.1719321,117.225779 C31.6983507,117.101875 29.8321507,117.420339 29.1629833,116.860211 C28.4958344,116.302131 24.7664623,117.150003 24.7664623,117.150003" id="Fill-162" fill="#000000"></path>
                                <path d="M14.1717149,117.92599 C14.0082079,118.836326 13.2734358,119.74359 14.0082079,120.326246 C14.7409614,120.903782 15.4777521,120.903782 16.3750219,120.653926 C17.2692637,120.406118 17.597287,119.909478 18.0857893,119.495782 C18.5753009,119.084134 19.8793195,118.836326 20.2890963,118.255718 C20.6938265,117.676134 20.9643195,116.079718 20.2285381,115.940454 C19.2121707,115.745894 17.944487,115.875942 15.91478,116.38999 L14.1717149,117.92599 Z" id="Fill-164" fill="#000000"></path>
                                <path d="M7.67826744,67.2739328 C7.93866744,68.1381888 7.9184814,71.3207808 7.58944884,72.6601728 C7.2695,73.9995648 5.67984884,75.8130688 5.67984884,75.8130688 L13.0760163,77.2241408 C13.0760163,77.2241408 12.4310721,72.1502208 13.8077605,71.1835648 C14.657593,70.5896448 7.67826744,67.2739328 7.67826744,67.2739328" id="Fill-166" fill="#CC9483"></path>
                                <path d="M14.7050302,64.3120128 C14.8897326,64.8885248 14.8099977,65.5889408 14.931114,66.1818368 C15.4155791,68.5657088 15.5245837,71.3909248 14.5980442,71.9735808 C13.4444116,72.6995968 9.63025814,71.5281408 8.23035581,69.2722688 C6.83852791,67.0102528 7.15544884,64.0590848 9.52226279,63.0217728 C12.1040581,61.8882048 13.8975884,61.7765888 14.7050302,64.3120128" id="Fill-168" fill="#FFBD95"></path>
                                <path d="M15.1534633,64.701952 C15.6248074,62.321152 9.48219349,59.244032 6.60669116,62.13376 C6.30591907,62.43584 6.2746307,62.66624 6.04450977,62.939648 C5.82448186,63.19872 5.64785395,63.129088 5.42681674,63.308288 C4.04810977,64.428544 4.47100744,67.6224 5.3188214,69.012992 C6.39070047,70.768128 6.46034233,70.959616 6.3180307,71.443968 C6.08790977,72.222208 11.7894586,71.878144 11.7894586,71.878144 L12.5514819,69.463552 L13.3922307,68.781568 L13.8837609,67.339776 L14.3601516,66.761216 C14.3601516,66.761216 14.0412121,65.440256 14.0735098,64.732672 C14.1189284,63.747584 15.1534633,64.701952 15.1534633,64.701952" id="Fill-170" fill="#A0593A"></path>
                                <polygon id="Fill-172" fill="#999DAA" points="1.69148977 125.432013 2.44644791 125.432013 6.11526186 102.035661 4.15721535 102.035661"></polygon>
                                <polygon id="Fill-174" fill="#999DAA" points="6.9450093 121.435955 7.35882326 121.435955 10.4281116 102.592307 8.64770233 102.592307"></polygon>
                                <polygon id="Fill-176" fill="#999DAA" points="26.312007 121.05001 26.7268302 121.05001 24.4478256 99.9740416 22.8965279 102.206362"></polygon>
                                <polygon id="Fill-178" fill="#999DAA" points="22.9480023 126.269952 23.6999326 126.269952 20.6669791 102.8736 18.7392116 102.8736"></polygon>
                                <path d="M3.03588047,100.809933 C3.75753163,100.106445 4.03912698,99.8801408 4.55790837,99.5248128 C4.79105721,99.3640448 7.22246651,97.0774528 7.22246651,97.0774528 L23.44902,98.0441088 C23.44902,98.0441088 23.9233921,98.1403648 24.4482293,98.3339008 C24.7893735,98.4598528 24.9670107,99.4224128 24.9236107,100.217037 C24.8761735,101.086413 23.4268153,102.677709 22.0672851,103.548109 C20.173834,104.760525 14.865913,104.534221 14.107927,104.534221 L13.1056898,104.534221 C12.348713,104.534221 4.6114014,104.727757 2.71795023,103.516365 C2.02657814,103.071949 2.43029907,101.399757 3.03588047,100.809933" id="Fill-180" fill="#44476E"></path>
                                <path d="M25.2396233,96.7560192 C23.7175953,98.1732352 20.291014,100.361523 18.8961581,100.747571 C17.4992837,101.134643 12.0440047,99.3334272 11.2819814,97.6591872 C10.5209674,95.9839232 17.7536279,93.7956352 20.0386884,93.7956352 C22.3217302,93.7956352 25.2396233,96.7560192 25.2396233,96.7560192" id="Fill-182" fill="#000000"></path>
                                <g id="Group-186" transform="translate(0.000000, 72.704000)">
                                    <mask id="mask-4" fill="white">
                                        <use xlink:href="#path-3"></use>
                                    </mask>
                                    <g id="Clip-185"></g>
                                    <path d="M6.65130233,0.3019776 C5.41288837,1.0075136 4.30366512,2.0376576 1.74508372,3.9074816 C1.74508372,3.9074816 0.786246512,3.9576576 0.623748837,4.3549696 C-1.55735349,9.6664576 2.69887442,11.8526976 2.46471628,13.9478016 C1.50587907,22.4992256 4.88098605,25.3438976 5.17065581,26.4293376 C5.30893023,26.9618176 12.8120837,25.9316736 15.851093,25.9838976 C17.4972651,26.5061376 21.2236093,23.2436736 21.7827628,22.7808256 C22.0502279,22.0609536 21.0520279,20.4952576 19.9115163,19.0319616 C19.0697581,17.9526656 18.6438326,16.5702656 18.8315628,14.2365696 C18.9678186,12.5275136 18.4399535,11.1154176 18.9587349,10.1487616 C19.4825628,9.1718656 18.8800093,4.0498176 18.8800093,4.0498176 C18.8800093,4.0498176 16.7049628,2.9264896 13.5983302,1.1539456 C12.8373163,0.7177216 10.9337721,1.3464576 10.9337721,1.3464576 L6.65130233,0.3019776 Z" id="Fill-184" fill="#26282D" mask="url(#mask-4)"></path>
                                </g>
                                <path d="M6.43642186,72.359936 L5.25452884,73.905152 C5.25452884,73.905152 7.91202186,73.786368 9.43505907,73.928704 C11.8705056,74.162176 14.4068823,74.48576 14.4068823,74.48576 L13.8598405,72.915968 C13.8598405,72.915968 12.8687056,72.48896 9.3159614,72.26368 C8.33088233,72.20224 6.43642186,72.359936 6.43642186,72.359936" id="Fill-187" fill="#26282D"></path>
                                <path d="M17.8797907,76.416 C19.6581814,75.38688 20.8239256,78.946304 21.6868791,82.306048 C22.2581442,84.52608 22.9575907,86.19008 23.2099163,86.844416 C24.0678233,89.064448 23.5904233,91.091968 22.7345349,91.768832 C21.255907,92.935168 18.5479488,91.768832 16.8331442,88.6784 C15.1223767,85.587968 17.8797907,76.416 17.8797907,76.416" id="Fill-189" fill="#26282D"></path>
                                <path d="M18.4986949,76.3679744 C17.4833367,76.8830464 17.0241042,77.5742464 17.0241042,77.5742464 C17.0241042,77.5742464 16.59616,75.9041024 12.0431972,75.3880064 C4.51077395,74.5339904 1.74427628,76.6116864 1.74427628,76.6116864 C1.74427628,76.6116864 4.89128093,73.8100224 5.65128558,73.8100224 C6.41229953,73.8100224 10.4888716,73.2304384 14.1687879,74.2441984 C14.9025507,74.4449024 17.1189786,75.6921344 17.4520484,75.8846464 L18.4986949,76.3679744 Z" id="Fill-191" fill-opacity="0.1" fill="#FFFFFF"></path>
                                <path d="M20.4020372,78.5399808 C20.2748651,80.3432448 18.9042326,82.3533568 19.0223209,82.3390208 C19.5411023,82.2683648 20.972293,80.7620608 20.972293,80.7620608 C20.972293,80.7620608 21.0449628,81.0262528 20.972293,81.7256448 C20.9258651,82.1884928 20.6886791,83.7060608 20.2920233,84.1412608 C19.9064698,84.5621248 21.449693,82.8530688 21.449693,82.2099968 C21.449693,81.5659008 20.4020372,78.5399808 20.4020372,78.5399808" id="Fill-193" fill-opacity="0.1" fill="#FFFFFF"></path>
                                <path d="M17.2154679,84.5259776 C16.7744028,83.3719296 12.2335516,82.4841216 9.95555628,82.3131136 C3.41527721,81.8236416 0.102746977,82.9275136 0.497384186,84.5259776 C3.44757488,96.4975616 0.370212093,99.3319936 2.65426326,101.648282 C3.92295628,102.936474 24.3431609,103.197594 22.063147,101.908378 C19.7841423,100.618138 18.5154493,99.8450176 18.2611051,94.9543936 C18.0077702,90.0617216 17.2154679,84.5259776 17.2154679,84.5259776" id="Fill-195" fill="#44476E"></path>
                                <path d="M7.4594507,61.9820032 C8.03071581,61.5959552 9.74451116,61.8857472 10.0775809,62.6824192 C10.4479949,63.5702272 9.98270651,61.9820032 9.98270651,61.9820032 C9.98270651,61.9820032 10.6710507,62.2963712 10.6710507,63.2620032 C11.5279484,62.6824192 10.93246,62.2216192 10.93246,62.2216192 L11.5047344,63.2845312 L12.170874,62.8022272 C12.170874,62.8022272 13.6929019,63.5261952 13.0267623,64.3935232 C14.8828693,63.4780672 13.503153,62.5605632 13.503153,62.5605632 C13.503153,62.5605632 14.9303065,63.2374272 15.2482367,64.7980032 C15.9143763,63.5415552 15.0251809,61.9717632 13.0267623,61.1126272 C11.4572972,60.4357632 10.93246,60.7736832 10.93246,60.7736832 C10.93246,60.7736832 8.45866,60.4838912 6.88919488,61.9328512 C6.2906786,62.4837632 6.04440884,62.9404672 6.04440884,62.9404672 L7.4594507,61.9820032 Z" id="Fill-197" fill="#BA784A"></path>
                                <path d="M13.5034558,66.5679872 C12.7414326,66.4707072 12.1711767,67.0502912 12.7414326,68.3057152 C13.3126977,69.5611392 13.7880791,69.7536512 14.2644698,69.3686272 C14.7408605,68.9815552 13.5034558,66.5679872 13.5034558,66.5679872" id="Fill-199" fill="#CC9483"></path>
                                <path d="M42.494353,91.2520192 C43.4965902,91.8838272 44.3423856,96.0361472 44.6118693,100.912435 C44.7804228,103.912755 44.2979763,109.549875 44.5028647,111.060275 C44.8308879,113.438003 45.5626321,114.445619 47.0876879,118.020403 C47.3127623,118.547763 43.0090972,115.884339 42.7608088,115.253555 C42.4095716,114.373939 41.766646,114.031923 41.8282135,113.333555 C41.9008833,112.478515 42.3328647,111.723827 41.8554647,110.290227 C40.7099065,106.855731 40.6877019,105.965875 39.4886507,101.265715 C38.2300507,96.3464192 38.4167716,88.6899712 42.494353,91.2520192" id="Fill-201" fill="#CC9483"></path>
                                <path d="M41.6141405,113.252966 C41.6757079,112.446054 43.5832893,112.355942 44.299894,113.79159 C44.299894,113.79159 44.9519033,114.62103 46.2135312,116.307558 C46.3891498,116.548198 46.5647684,116.741734 46.7343312,116.913766 C47.5276428,116.804198 48.4128009,116.731494 48.5288707,117.16567 C48.6782474,117.711462 48.5177684,118.227558 48.246266,118.514278 C47.83548,118.995558 46.4880614,119.284326 45.2405637,119.211622 C44.8913451,119.190118 44.0455498,117.738086 43.8971823,117.079654 C43.7478056,116.420198 42.7314381,116.030054 42.139987,115.574374 C41.5485358,115.11767 41.5243126,114.443878 41.6141405,113.252966" id="Fill-203" fill="#000000"></path>
                                <path d="M41.8555656,115.177984 C42.2724074,115.723776 42.9678167,117.395968 43.3866772,119.674368 C43.6743284,119.657984 43.8731609,119.561728 43.8731609,119.561728 C43.8731609,119.561728 42.8355981,115.839488 43.0071795,115.305984 C43.1787609,114.770432 41.8555656,115.177984 41.8555656,115.177984" id="Fill-205" fill="#000000"></path>
                                <path d="M51.4991465,93.9990016 C52.0774767,95.0424576 50.6674814,98.7739136 48.5832721,103.17609 C47.3034767,105.885594 43.8395512,110.686106 43.3026023,112.109466 C42.4588256,114.352026 43.3692163,115.98633 41.9400442,118.773658 C41.6786349,119.285658 40.9731326,118.857626 40.5149093,116.857754 C40.2837791,115.84809 39.4299093,113.821594 39.8164721,113.24201 C40.286807,112.528282 41.1568256,111.37833 41.4202535,109.891482 C42.0520767,106.320794 42.2630209,105.37769 43.4469326,100.675482 C44.6883744,95.7500416 49.1474721,89.7555456 51.4991465,93.9990016" id="Fill-207" fill="#E0AC9B"></path>
                                <path d="M39.8793516,112.489984 C40.3183981,111.814144 42.0311842,112.66816 41.9746633,114.276864 C41.9746633,114.276864 42.1492726,115.324416 42.451054,117.41952 C42.4934447,117.71648 42.5540028,117.97248 42.6206167,118.205952 C43.3685098,118.495744 44.1779702,118.866432 44.0740121,119.301632 C43.9428028,119.855616 43.5582586,120.228352 43.1838074,120.346112 C42.5943749,120.564224 41.2772353,120.159744 40.2204958,119.483904 C39.9237609,119.294464 39.8743051,117.607936 40.0569888,116.959744 C40.2396726,116.309504 39.5351795,115.4688 39.2344074,114.779648 C38.9336353,114.089472 39.2333981,113.488384 39.8793516,112.489984" id="Fill-209" fill="#000000"></path>
                                <path d="M39.1736474,114.292941 C39.2786149,114.975949 39.0929033,116.780237 38.3752893,118.981837 C38.63468,119.105741 38.8557172,119.122125 38.8557172,119.122125 C38.8557172,119.122125 39.7166521,115.353805 40.1213823,114.968781 C40.5271219,114.584781 39.1736474,114.292941 39.1736474,114.292941" id="Fill-211" fill="#000000"></path>
                                <path d="M43.957034,91.414016 C46.874927,89.997824 50.9353502,91.284992 51.1886851,92.058112 C51.4430293,92.830208 51.8073874,94.341632 52.2827688,97.14432 C52.4008572,97.829376 45.6213735,101.48608 45.6213735,101.48608 L43.957034,91.414016 Z" id="Fill-213" fill="#000000"></path>
                                <path d="M39.4191098,75.2239616 C42.581254,77.1060736 43.9115144,76.8234496 45.1014819,77.4562816 C46.2924586,78.0809216 46.2712633,81.6055296 46.2712633,81.6055296 C46.2712633,81.6055296 44.3768028,84.1102336 44.2233888,84.6601216 C44.1083284,85.0727936 43.2635423,87.6614656 43.4835702,89.9204096 C43.6450586,91.5598336 45.0540447,92.6176256 45.963426,95.8749696 C46.0623377,96.2282496 35.3173051,95.1397376 35.3173051,95.1397376 L34.365533,82.0438016 C34.365533,82.0438016 32.8071702,79.5042816 33.4884493,75.7083136 L39.4191098,75.2239616 Z" id="Fill-215" fill="#000000"></path>
                                <path d="M33.5072223,75.926016 C30.7326502,77.485568 30.5297805,77.673984 29.4447805,78.475776 C28.3557433,79.272448 27.2858828,91.09248 27.2858828,91.09248 C27.2858828,91.09248 27.7309851,98.236928 30.2996595,93.312512 C30.3965526,93.13024 30.4843619,84.92288 30.521706,85.008896 C30.695306,85.400064 31.6702921,88.079872 31.3503433,91.772416 C31.2100502,93.403648 29.6779293,94.20032 29.8696967,96.829952 C29.8868549,97.090048 37.9471433,94.605824 37.9471433,94.605824 L38.9120363,75.902464 L33.5072223,75.926016 Z" id="Fill-217" fill="#000000"></path>
                                <path d="M45.9076116,78.976 C48.7659558,87.247872 49.4754953,91.575296 48.2391,92.539904 C46.773593,93.682688 45.1869698,90.143744 44.9558395,89.740288 C43.7658721,87.66464 43.5145558,85.1456 43.4519791,84.970496 C43.2904907,84.498432 45.9076116,78.976 45.9076116,78.976" id="Fill-219" fill="#000000"></path>
                                <polygon id="Fill-221" fill="#999DAA" points="26.6727316 125.045965 27.4276898 125.045965 31.0954944 101.649613 29.1384572 101.649613"></polygon>
                                <polygon id="Fill-223" fill="#999DAA" points="50.8467335 124.917965 51.5986637 124.917965 48.5677288 101.521613 46.6399614 101.521613"></polygon>
                                <polygon id="Fill-225" fill="#999DAA" points="31.9271595 121.05001 32.3399642 121.05001 35.4102619 102.206362 33.6298526 102.206362"></polygon>
                                <polygon id="Fill-227" fill="#999DAA" points="52.8159833 120.663962 53.2297972 120.663962 50.9507926 99.5890176 49.3994949 101.820314"></polygon>
                                <path d="M29.5389484,100.425933 C30.2616088,99.7203968 30.5421949,99.4961408 31.0609763,99.1377408 C31.2961437,98.9779968 33.7255344,96.6924288 33.7255344,96.6924288 L49.9520879,97.6580608 C49.9520879,97.6580608 50.4274693,97.7543168 50.9512972,97.9478528 C51.2934507,98.0738048 51.4700786,99.0343168 51.4276879,99.8309888 C51.3802507,100.699341 49.9308926,102.291661 48.5713623,103.162061 C46.6779112,104.373453 41.3689809,104.149197 40.6120042,104.149197 L39.609767,104.149197 C38.8517809,104.149197 31.1154786,104.341709 29.2220274,103.129293 C28.529646,102.685901 28.9343763,101.013709 29.5389484,100.425933" id="Fill-229" fill="#44476E"></path>
                                <path d="M32.2032037,92.0580096 C32.0154735,95.2057856 31.0606735,99.7165056 32.8380549,100.489626 C34.614427,101.262746 44.6378084,101.905818 47.4305479,100.231578 C47.9533665,99.9182336 50.2576037,98.6976256 50.1899805,97.5620096 C50.0880409,95.8140416 47.3225526,93.8704896 46.7946874,92.6365696 C45.9246688,90.5998336 32.2032037,92.0580096 32.2032037,92.0580096" id="Fill-231" fill="#000000"></path>
                                <path d="M43.7194442,84.1409536 C43.2773698,82.9858816 38.7385372,82.0970496 36.4605419,81.9270656 C29.9192535,81.4375936 26.6077326,82.5404416 27.0023698,84.1409536 C29.9505419,96.1115136 26.8751977,98.9459456 29.1582395,101.263258 C30.4279419,102.550426 50.8451186,102.811546 48.5681326,101.52233 C46.2881186,100.23209 45.0194256,99.4599936 44.7650814,94.5683456 C44.5107372,89.6756736 43.7194442,84.1409536 43.7194442,84.1409536" id="Fill-233" fill="#44476E"></path>
                                <path d="M43.3380288,66.9060096 C43.5974195,67.5582976 43.8366242,68.4338176 43.7710195,69.1762176 C43.7054149,69.9175936 43.9436102,70.7337216 44.0960149,70.9897216 C44.3261358,71.3757696 44.1969451,72.6270976 44.1252847,73.1216896 C44.0546335,73.6183296 43.5873265,73.5876096 44.1656567,74.0678656 C44.7460056,74.5501696 44.8661126,74.6515456 44.3927498,75.1143936 C43.8739684,75.6202496 44.2827358,75.6745216 44.6147963,75.9950336 C44.9458474,76.3165696 44.58048,76.3237376 44.5865358,76.5715456 C44.6097498,77.6641536 45.7018149,77.4542336 45.7018149,77.4542336 C45.7018149,77.4542336 43.2280149,78.4976896 43.3188521,77.1163136 C43.4924521,74.5061376 42.6244521,75.0498816 42.6244521,75.0498816 C42.6244521,75.0498816 41.8220567,75.3980416 41.8018707,74.4928256 C41.7816847,73.5855616 42.1026428,73.4135296 41.5263312,73.0981376 C40.9510288,72.7817216 40.6320893,73.1134976 40.3202149,72.3362816 C40.0083405,71.5549696 38.7658893,72.2287616 39.5491079,70.8924416 C40.3313172,69.5571456 39.8236381,69.4291456 40.5907079,67.4364416 C41.3597963,65.4396416 41.6635963,64.4463616 42.0784195,64.8487936 C42.4922335,65.2502016 43.3380288,66.9060096 43.3380288,66.9060096" id="Fill-235" fill="#FFBD95"></path>
                                <path d="M44.5049842,81.536 C44.260733,81.289216 44.6422493,81.30048 44.59784,80.917504 C44.55444,80.535552 44.4212121,80.329728 44.2647702,79.906816 C44.1073191,79.483904 44.3889144,79.451136 44.3929516,79.005696 C44.3959795,78.761984 43.8105842,78.942208 44.0740121,78.00832 C44.2677981,77.32224 43.8105842,77.362176 43.7308493,77.150208 C43.6511144,76.93824 43.7601191,76.691456 43.8590307,76.127232 C43.9054586,75.860992 43.7005702,75.208704 43.4754958,74.496 C43.5824819,74.244096 43.6056958,73.974784 43.4068633,73.767936 C43.0939795,73.442304 43.6420307,73.074688 43.5602772,72.477696 C43.4815516,71.881728 43.4805423,71.796736 43.4331051,71.60832 C43.42604,71.573504 43.4068633,71.535616 43.3897051,71.497728 C43.392733,71.247872 43.3907144,70.991872 43.38264,70.733824 C43.5592679,70.337536 43.3735563,69.686272 43.4482447,69.433344 C43.5239423,69.1712 43.3897051,68.414464 43.3897051,68.414464 C43.3897051,68.414464 43.099026,68.040704 43.1787609,67.77856 C43.229226,67.605504 43.0525981,66.76992 42.7033795,66.176 C42.5287702,65.552384 42.3450772,65.101824 42.1896447,64.93696 C40.6121051,63.244288 39.3736912,64.111616 39.3736912,64.111616 C38.1362865,63.822848 37.2521377,63.522816 35.5383423,64.77824 C35.4777842,64.823296 35.4192447,64.896 35.3586865,64.960512 C34.2323051,65.431552 33.1806121,66.857984 33.1886865,67.212288 C33.1977702,67.621888 32.5730121,68.0448 32.5730121,68.0448 C32.5730121,68.0448 32.0279888,69.088256 32.0360633,69.496832 C32.0441377,69.909504 31.3951563,70.84544 31.5697656,71.498752 C31.7463935,72.154112 31.2629377,72.406016 31.1064958,72.65792 C30.9490447,72.907776 30.9096819,73.032704 30.5231191,73.865216 C30.135547,74.697728 30.8481144,75.452416 30.2061981,75.79648 C29.5642819,76.13952 29.7277888,76.930048 29.9831423,77.502464 C30.2395051,78.071808 28.810333,78.596096 30.1103144,79.045632 C30.7108493,79.253504 28.1552958,79.762432 30.459533,81.23392 C30.5200912,81.27488 31.1287005,80.801792 31.1892586,80.816128 C31.6595935,81.189888 30.1749098,80.623616 31.0630958,82.394112 C31.1983423,82.666496 32.3963842,82.673664 32.8081795,83.391488 C33.3784353,84.38784 34.4250819,84.001792 34.9004633,83.616768 C35.376854,83.23072 35.3213423,83.534848 35.504026,83.810304 C35.9471098,84.486144 36.8443795,84.190208 37.2803981,83.971072 C37.850654,83.68128 38.0737098,84.550656 38.7398493,84.456448 C39.4049795,84.359168 38.9931842,84.068352 39.8500819,83.873792 C40.7059702,83.682304 40.2618772,84.678656 41.1510726,83.649536 C41.4871702,83.258368 41.9746633,84.100096 42.6408028,83.23072 C43.055626,82.689024 43.1636214,82.44736 43.1383888,81.733632 C43.3463051,82.055168 43.5007284,82.27328 43.5592679,82.311168 C43.913533,82.545664 44.5998586,82.353152 44.781533,82.057216 C44.9662353,81.758208 44.751254,81.783808 44.5049842,81.536" id="Fill-237" fill="#FFA47C"></path>
                                <path d="M31.1928921,77.8479616 C30.0503619,77.4363136 31.3079526,76.9529856 31.0818688,76.4286976 C30.8578037,75.9044096 30.7124642,75.1763456 31.2776735,74.8609536 C31.8418735,74.5455616 31.2150967,73.8502656 31.5562409,73.0853376 C31.8973851,72.3204096 31.9306921,72.2057216 32.0679572,71.9742976 C32.2072409,71.7438976 32.6331665,71.5124736 32.4767247,70.9103616 C32.3212921,70.3082496 32.8945758,69.4480896 32.8854921,69.0681856 C32.878427,68.6923776 33.3588549,67.7328896 33.3588549,67.7328896 C33.3588549,67.7328896 33.9079153,67.3447936 33.9008502,66.9679616 C33.8937851,66.6556416 35.2412037,64.8902656 36.1879293,64.3844096 C35.4632502,64.3598336 34.9374037,64.9435136 34.4600037,65.3838336 C34.4105479,65.4299136 34.3651293,65.5015936 34.3176921,65.5640576 C33.3679386,66.0903936 32.5625153,67.8322176 32.5978409,68.1558016 C32.638213,68.5316096 31.9296828,69.2596736 31.9296828,69.2596736 C31.9296828,69.2596736 31.7278223,69.9713536 31.7661758,70.3461376 C31.8065479,70.7219456 31.3099712,71.6343296 31.5148595,72.2180096 C31.7207572,72.8037376 31.3170363,73.0740736 31.1989479,73.3167616 C31.0818688,73.5604736 31.0566363,73.6782336 30.7841247,74.4728576 C30.5085851,75.2674816 31.1928921,75.8982656 30.6569526,76.2658816 C30.121013,76.6355456 30.3269107,77.3462016 30.5953851,77.8479616 C30.8618409,78.3456256 29.6688456,78.9415936 30.8093572,79.2457216 C30.1654223,78.3589376 31.6319386,78.0077056 31.1928921,77.8479616 M43.8495433,80.1386496 C43.6325433,79.9102976 43.9686409,79.9195136 43.9302874,79.5703296 C43.891934,79.2201216 43.7758642,79.0296576 43.6375898,78.6384896 C43.498306,78.2503936 43.7465944,78.2196736 43.7496223,77.8131456 C43.7516409,77.5858176 43.237906,77.7537536 43.4700456,76.8935936 C43.6406177,76.2638336 43.237906,76.3017216 43.1692735,76.1051136 C43.0996316,75.9095296 43.194506,75.6832256 43.281306,75.1640576 C43.3226874,74.9223936 43.141013,74.3213056 42.9441991,73.6649216 C43.0370549,73.4324736 43.0582502,73.1836416 42.8826316,72.9962496 C42.6081014,72.6962176 43.0885293,72.3582976 43.0198967,71.8104576 C42.9482363,71.2615936 42.947227,71.1837696 42.9068549,71.0096896 C42.8997898,70.9779456 42.8826316,70.9441536 42.8674921,70.9103616 C42.8715293,70.6779136 42.8695107,70.4444416 42.8624456,70.2058496 C43.0168688,69.8423296 42.8533619,69.2402176 42.9179572,69.0098176 C42.9865898,68.7702016 42.8685014,68.0738816 42.8685014,68.0738816 C42.8685014,68.0738816 42.6131479,67.7298176 42.6817805,67.4902016 C42.7271991,67.3284096 42.5717665,66.5624576 42.2649386,66.0146176 C42.109506,65.4422016 41.9278316,64.8861696 41.7915758,64.7325696 C40.4027758,63.1781376 39.0795805,64.0577536 39.0795805,64.0577536 C37.9915526,63.7894656 36.6915712,63.4781696 35.0898084,64.8615936 C35.0373247,64.9066496 35.8851386,64.4929536 35.8326549,64.5523456 C35.7953107,64.5677056 35.1564223,65.1001856 35.1190781,65.1196416 C37.1275898,63.6952576 38.1772642,64.6680576 38.293334,64.6844416 C38.293334,64.6844416 38.7868828,63.8980096 40.3028549,65.3162496 C40.4512223,65.4544896 40.6460177,65.8518016 40.8468688,66.4057856 C41.2001247,66.9239296 41.4201526,67.6714496 41.3888642,67.8363136 C41.341427,68.0810496 41.6240316,68.3995136 41.6240316,68.3995136 C41.6240316,68.3995136 41.8016688,69.0804736 41.7542316,69.3262336 C41.708813,69.5648256 41.9217758,70.1464576 41.7996502,70.5243136 C41.8258921,70.7608576 41.8480967,70.9933056 41.8642456,71.2237056 C41.882413,71.2564736 41.9015898,71.2902656 41.9116828,71.3209856 C41.969213,71.4878976 41.9752688,71.5657216 42.0913386,72.1074176 C42.2084177,72.6470656 41.7582688,73.0279936 42.0580316,73.3014016 C42.2477805,73.4734336 42.2477805,73.7202176 42.1741014,73.9598336 C42.426427,74.5957376 42.6565479,75.1742976 42.6373712,75.4221056 C42.5949805,75.9463936 42.5192828,76.1829376 42.6050735,76.3703296 C42.6908642,76.5577216 43.0885293,76.4819456 42.9734688,77.1270656 C42.8139991,78.0036096 43.3125944,77.7895936 43.3287433,78.0138496 C43.3600316,78.4203776 43.1157805,78.4736256 43.2863526,78.8504576 C43.4569247,79.2242176 43.5901526,79.4023936 43.6577758,79.7464576 C43.7264084,80.0935936 43.39132,80.1171456 43.6254781,80.3219456 C43.8596363,80.5257216 44.0453479,80.4868096 43.9080828,80.7745536 C43.9030363,80.7858176 43.8949619,80.7940096 43.888906,80.8042496 C43.9777247,80.7530496 44.0514037,80.6875136 44.0927851,80.6168576 C44.2542735,80.3434496 44.065534,80.3659776 43.8495433,80.1386496 M30.8275247,79.2518656 C30.8204595,79.2487936 30.8164223,79.2467456 30.8093572,79.2457216 C30.8366084,79.2815616 30.8648688,79.3214976 30.9012037,79.3624576 C30.9244177,79.3122816 30.9143247,79.2733696 30.8275247,79.2518656" id="Fill-239" fill="#FFBD95"></path>
                                <polygon id="Fill-241" fill="#D5D5D5" points="80.052814 57.341952 157.882135 57.341952 157.882135 0.280576 80.052814 0.280576"></polygon>
                                <polygon id="Fill-243" fill="#E0F2FF" points="83.5288512 54.444032 154.406098 54.444032 154.406098 3.17952 83.5288512 3.17952"></polygon>
                                <path d="M140.303015,25.7089536 C140.237411,25.6516096 139.946732,25.6690176 139.648987,25.7335296 C139.792308,25.6198656 139.937648,25.5041536 140.044634,25.4713856 C140.228327,25.4099456 140.472578,24.8446976 140.376694,24.6020096 C140.278792,24.3634176 139.86296,24.8016896 139.701471,24.9348096 C139.537964,25.0699776 138.38635,25.3935616 138.186508,25.4908416 C137.984648,25.5901696 137.031867,26.6756096 136.906713,26.7923456 C136.78156,26.9049856 133.65676,28.4051456 132.648467,28.6314496 C132.648467,28.6314496 133.335801,31.0122496 133.431685,30.9764096 C133.541699,30.9374976 137.608178,28.8096256 137.753518,28.7338496 C137.898857,28.6539776 138.981839,28.4256256 139.253341,28.3303936 C139.525853,28.2279936 140.009308,27.9330816 140.153639,27.8163456 C140.153639,27.8163456 140.435234,25.8154496 140.303015,25.7089536" id="Fill-244" fill="#FFBD95"></path>
                                <g id="Group-247" transform="translate(135.246512, 25.600000)">
                                    <mask id="mask-6" fill="white">
                                        <use xlink:href="#path-5"></use>
                                    </mask>
                                    <g id="Clip-246"></g>
                                    <polygon id="Fill-245" mask="url(#mask-6)" points="1.02242326 3.697664 2.30726512 3.110912 3.73744651 2.784256 4.5146093 2.362368 4.67609767 2.077696 4.82345581 0.646144 4.31476744 0.069632 0.582367442 2.450432"></polygon>
                                </g>
                                <path d="M138.901902,27.92448 C138.901902,27.92448 138.64352,27.93984 138.526441,27.671552 C138.479004,27.56096 138.71619,27.43296 138.880707,27.436032 C138.9342,27.440128 139.434813,27.436032 139.434813,27.436032 C139.434813,27.436032 139.253139,27.43296 139.100734,27.367424 C138.80299,27.24352 138.533507,27.1104 138.638474,26.865664 C138.742432,26.619904 139.283418,26.889216 139.502437,26.846208 C139.319753,26.793984 138.777758,26.533888 138.864558,26.345472 C138.953376,26.15808 139.618507,26.20928 139.674018,26.206208 C139.72852,26.208256 139.984883,26.0864 139.984883,26.0864 C139.984883,26.0864 139.522623,26.023936 139.447934,25.96864 C139.372237,25.914368 139.333883,25.78432 139.422702,25.633792 C139.51253,25.48224 140.025255,25.450496 140.136279,25.449472 C140.247302,25.4464 140.627809,25.214976 140.776176,25.21088 C140.922525,25.207808 140.967944,25.654272 140.989139,25.76384 C141.011344,25.877504 140.746907,25.952256 140.746907,26.062848 C140.749934,26.174464 140.821595,26.481664 140.7136,26.61376 C140.605604,26.747904 140.415855,26.928128 140.415855,26.928128 C140.415855,26.928128 140.412827,27.159552 140.324009,27.409408 C140.239227,27.652096 140.054525,27.620352 140.056544,27.76576 C140.06159,27.920384 139.470139,27.987968 139.470139,27.987968 L138.901902,27.92448 Z" id="Fill-248" fill="#FFBD95"></path>
                                <polygon id="Fill-249" fill="#D4D5D6" points="135.440802 27.0239744 136.455151 26.6379264 137.534095 30.1778944 136.264393 31.2070144"></polygon>
                                <path d="M128.08097,20.651008 C128.366602,20.748288 129.127616,21.326848 129.2235,21.906432 C129.318374,22.486016 131.760886,27.024384 131.950635,27.60192 C132.140384,28.181504 132.490612,28.086272 132.967002,27.987968 C133.442384,27.891712 136.075653,26.638336 136.075653,26.638336 C136.075653,26.638336 136.6449,30.692352 137.502807,31.368192 C133.980342,32.816128 131.6973,33.588224 131.03116,33.395712 C130.365021,33.204224 127.41483,29.630464 127.318947,28.663808 C127.224072,27.700224 128.08097,20.651008 128.08097,20.651008" id="Fill-250" fill="#000000"></path>
                                <path d="M102.277752,36.4839936 C101.912385,36.5423616 101.147333,36.6744576 100.777929,36.6642176 C100.405496,36.6560256 99.9190126,37.0881536 99.2720498,37.1608576 C99.0368823,37.1864576 98.8037335,37.4291456 99.0600963,37.5479296 C99.3204963,37.6677376 99.7232079,37.5223296 100.090594,37.5919616 C100.547808,37.6759296 99.5041893,38.4674816 99.2185567,38.6620416 C98.9763242,38.8279296 97.6652405,40.0372736 97.81058,40.1959936 C98.0800637,40.4847616 99.436566,38.9805056 99.5203381,39.1259136 C99.5849335,39.2457216 97.8489335,40.5799936 98.0518033,40.7233536 C98.4807567,41.0274816 99.6061288,39.6798976 99.9220405,39.7444096 C99.9220405,39.7444096 99.600073,40.0352256 99.2498451,40.3403776 C98.9298963,40.6240256 98.54838,40.8298496 98.5514079,40.9435136 C98.5635195,41.7422336 100.375217,39.6225536 100.510464,39.9522816 C100.61745,40.2144256 99.3982126,41.0377216 99.6777893,41.2251136 C99.8160637,41.3162496 101.125129,40.1325056 101.125129,40.1325056 C101.125129,40.1325056 103.188143,38.8545536 103.812901,38.2360576 C104.188361,37.8633216 105.682129,37.2581376 105.682129,37.2581376 L103.955213,35.7067776 C103.955213,35.7067776 102.905538,36.3805696 102.277752,36.4839936" id="Fill-251" fill="#FFBD95"></path>
                                <path d="M102.980529,35.6279296 L102.034813,36.3723776 C102.034813,36.3723776 103.800083,38.9282816 103.967627,39.3153536 L105.346334,38.2893056 L102.980529,35.6279296 Z" id="Fill-252" fill="#D4D5D6"></path>
                                <path d="M111.141647,20.457984 C112.055066,19.140096 112.846359,19.559936 113.425698,20.394496 C114.11808,21.39392 113.806205,24.900096 113.298526,26.509824 C112.839293,27.965952 112.664684,31.206912 111.522154,33.587712 C110.379624,35.968512 104.91728,40.643072 104.859749,40.283648 C104.682112,39.14496 102.886563,36.464128 102.512112,35.906048 C104.098735,34.3936 107.582847,31.226368 107.808931,30.69184 C108.539666,28.985856 111.141647,20.457984 111.141647,20.457984" id="Fill-253" fill="#000000"></path>
                                <path d="M118.01651,17.7299456 C118.184054,17.3674496 118.326366,17.0776576 118.706873,17.1268096 C119.088389,17.1749376 122.941905,17.8272256 123.061003,18.5266176 C123.1801,19.2260096 122.203096,19.9264256 121.56118,20.0226816 C120.918254,20.1199616 118.01651,17.7299456 118.01651,17.7299456" id="Fill-254" fill="#4A75DD"></path>
                                <path d="M122.792226,19.3394688 C123.081895,20.1238528 121.829351,21.3301248 121.362044,21.2942848 C120.893728,21.2574208 118.235226,18.7680768 118.235226,18.7680768 C118.235226,18.7680768 118.703542,15.7923328 118.809519,15.0960128 C118.918523,14.4058368 122.738733,16.7149568 122.738733,16.7149568 C122.487416,17.5915008 122.501547,18.5581568 122.792226,19.3394688 Z" id="Fill-255" fill="#FFBD95"></path>
                                <path d="M126.009175,25.8299904 L126.718714,20.7785984 L123.258826,18.7213824 C123.0499,18.9896704 122.061793,20.5369344 121.425933,20.4703744 C120.792091,20.3997184 121.085798,21.5855104 121.085798,21.5855104 L121.448138,36.4580864 L125.648854,36.4120064 C125.648854,36.4120064 126.211035,35.7576704 126.211035,32.9764864 C126.211035,32.1101824 126.338207,28.1196544 126.009175,25.8299904" id="Fill-259" fill="#6597EF"></path>
                                <path d="M120.841143,20.4676096 C120.271897,20.1798656 118.32798,18.8701696 118.118046,18.4093696 L117.948483,18.1103616 C116.090357,18.7851776 114.210027,19.3002496 113.488376,19.3002496 C113.488376,19.3002496 114.469418,24.4397056 114.629897,26.1057536 C114.823683,28.1250816 114.403813,32.1975296 114.286734,34.1267456 C114.221129,35.2162816 114.84286,36.4379136 114.84286,36.4379136 C114.84286,36.4379136 120.048841,36.6744576 121.708134,36.4461056 C122.17746,36.3805696 121.990739,35.0145536 121.944311,32.4719616 C121.877697,27.9960576 121.507283,20.8045056 120.841143,20.4676096 Z" id="Fill-260" fill="#4A75DD"></path>
                                <path d="M120.852246,75.4089984 C120.799762,74.6522624 121.238808,74.1720064 120.906748,70.2859264 C120.866376,69.8159104 124.338376,69.6561664 124.338376,69.6561664 C124.184962,71.5659264 123.689394,72.7619584 125.511185,75.0577664 C125.90885,75.5585024 127.058446,76.4841984 127.462167,76.8937984 C127.747799,77.1825664 128.080869,78.5178624 126.368083,78.5178624 C124.211204,78.5178624 122.560994,77.8594304 122.014962,76.8221184 C121.969543,76.7361024 121.833287,76.7688704 121.833287,76.7688704 C121.833287,76.7688704 120.991529,77.3761024 120.852246,75.4089984" id="Fill-261" fill="#000000"></path>
                                <path d="M118.46898,37.884928 C118.301436,40.378368 117.564645,43.196416 117.564645,43.196416 C117.564645,43.196416 116.882357,43.572224 115.32904,43.824128 C113.42045,44.130304 110.904259,42.720256 110.904259,42.568704 C110.904259,38.7072 112.426287,35.54816 112.474733,33.78176 C112.512078,32.415744 112.730087,28.703744 112.53832,28.118016 C112.344533,27.532288 111.79951,22.165504 112.064957,20.859904 C112.180017,20.286464 111.547185,19.66592 112.093217,19.556352 C113.644515,19.248128 114.464068,19.234816 117.203315,18.060288 C117.203315,18.060288 116.722887,21.30944 117.190194,22.258688 C117.664566,23.22432 117.733199,27.329536 118.056175,28.311552 C118.253999,28.896256 118.697082,34.490368 118.46898,37.884928" id="Fill-262" fill="#000000"></path>
                                <path d="M115.059557,72.531968 L111.792445,72.081408 C111.792445,72.081408 111.747027,72.399872 111.490664,73.545728 C111.015282,75.669504 109.809166,76.827648 109.302496,77.408256 C108.853357,77.920256 108.763529,78.514176 108.880608,79.0016 L108.873543,79.2576 C108.873543,79.2576 109.064301,80.256 109.73044,80.256 C110.39658,80.256 113.140873,79.806464 113.473943,79.322112 C113.618273,79.11424 113.654608,78.898176 113.654608,78.72 C113.66672,78.696448 113.685896,78.671872 113.69498,78.647296 C113.69498,78.647296 113.981622,77.488128 114.362129,77.584384 C114.362129,77.584384 115.01111,76.924928 114.630603,75.86304 C114.251106,74.801152 115.059557,72.531968 115.059557,72.531968" id="Fill-263" fill="#000000"></path>
                                <path d="M126.114647,36.0999936 C126.129787,36.4481536 126.739405,37.7660416 126.749498,38.0937216 C126.849419,41.6756736 126.749498,43.0744576 126.749498,44.0155136 C126.749498,45.0456576 126.495154,56.5042176 125.733131,59.0795776 C124.972117,61.6528896 124.845954,71.1801856 125.352624,71.9522816 C125.860303,72.7264256 125.733131,74.7201536 125.733131,74.7201536 C125.733131,74.7201536 120.466591,75.1717376 120.339419,76.2018816 C120.339419,76.2018816 120.14967,75.1082496 120.023507,72.8544256 C119.7732,68.3918336 119.896335,67.0923776 120.181968,59.3683456 C120.239498,57.8241536 119.958912,49.1662336 119.958912,47.6220416 C119.958912,46.4700416 117.803042,58.5634816 116.787684,62.1679616 C116.787684,62.1679616 115.112242,69.7895936 115.536149,73.1124736 C115.916656,76.1046016 115.011312,76.8777216 115.011312,76.8777216 C115.011312,76.8777216 111.838066,75.2198656 110.063712,76.2489856 C109.999117,75.2198656 109.881028,75.1010816 110.111149,73.2404736 C110.396782,70.9241856 110.792428,65.5225856 111.078061,62.2642176 C111.415168,58.4150016 112.537512,49.0361856 112.790847,44.4025856 C113.045191,39.7679616 114.427935,37.5397376 114.947726,36.6140416 C115.468526,35.6893696 126.114647,36.0999936 126.114647,36.0999936" id="Fill-264" fill="#000000"></path>
                                <path d="M126.114647,44.2739712 C125.924898,49.5516672 124.369563,57.6310272 123.798298,59.9483392 C123.228042,62.2646272 123.989056,61.3962752 123.703424,62.7479552 C123.417791,64.0996352 123.513675,70.9553152 123.513675,71.4376192 C123.513675,71.9199232 120.753233,72.4984832 121.323489,72.8855552 C121.894754,73.2716032 123.989056,72.5957632 123.989056,72.8855552 C123.989056,73.1743232 122.370135,73.7539072 122.370135,73.7539072 C122.370135,73.7539072 125.605959,73.9484672 125.797726,73.8501632 C125.987475,73.7539072 125.670554,72.9162752 125.543382,71.8881792 C125.41621,70.8580352 124.655196,63.9071232 125.41621,61.3962752 C126.177224,58.8864512 126.907959,46.3014912 126.623335,44.6610432 C126.336693,43.0195712 126.114647,44.2739712 126.114647,44.2739712" id="Fill-265" fill="#26282D"></path>
                                <path d="M120.181968,46.0439552 C119.136331,48.1677312 116.946145,59.0794752 116.470763,60.6236672 C115.994373,62.1688832 115.201061,63.5523072 114.820554,64.0356352 C114.442066,64.5179392 112.298307,72.2419712 112.584949,73.5936512 C113.536721,73.6899072 114.488493,73.4984192 114.583368,73.9796992 C114.679252,74.4640512 112.108559,74.2694912 112.108559,74.2694912 L115.345391,76.0082432 C115.345391,76.0082432 115.53514,74.3667712 115.53514,73.1123712 C115.53514,71.8559232 115.742047,65.9331072 116.693819,62.8426752 C117.644582,59.7542912 117.739456,57.7257472 118.119963,55.0234112 C118.50047,52.3200512 120.181968,46.0439552 120.181968,46.0439552" id="Fill-266" fill="#26282D"></path>
                                <polygon id="Fill-267" fill="#26282D" points="114.918658 35.4459648 111.789821 36.5058048 111.726235 38.1800448 114.854063 37.4509568"></polygon>
                                <path d="M118.230987,41.9888128 C118.056377,43.4695168 117.350875,43.8719488 116.02667,44.0501248 C114.123126,44.3081728 111.42627,42.9227008 111.42627,42.9227008 C111.42627,42.9227008 116.430391,44.5058048 117.295363,43.2114688 C118.626633,41.2177408 118.373298,31.0299648 118.373298,31.0299648 C118.658931,33.0574848 118.393484,40.6146048 118.230987,41.9888128 Z" id="Fill-268" fill="#26282D"></path>
                                <path d="M128.366804,34.0719616 C128.081172,31.7536256 127.795539,26.4441856 128.081172,24.9962496 C128.366804,23.5483136 128.747311,21.0374656 128.081172,20.6514176 C128.035753,20.6237696 126.203869,19.8957056 123.798702,18.7201536 L123.896604,20.7794176 C124.464841,27.3135616 124.940223,30.7900416 124.940223,30.7900416 L125.818316,35.7062656 C126.039353,38.1843456 126.250297,40.2620416 126.368386,40.7341056 C126.654018,41.8942976 127.12839,43.0985216 128.176046,43.1476736 C128.841176,43.1783936 130.07959,42.8589056 130.07959,42.8589056 C130.07959,42.8589056 128.651427,36.3902976 128.366804,34.0719616" id="Fill-269" fill="#26282D"></path>
                                <polygon id="Fill-270" fill="#D4D5D6" points="122.633361 36.2779648 121.431282 19.9994368 120.221129 20.0117248 119.801259 20.2646528 120.777254 21.2302848 120.76918 34.9252608"></polygon>
                                <polygon id="Fill-271" fill="#FFFFFF" points="123.957061 34.9559808 122.045443 21.1278848 122.45522 20.3854848 122.25235 19.8663168 121.252131 20.0117248 121.395452 21.1749888 121.401508 21.1749888 122.632857 36.2779648"></polygon>
                                <path d="M122.831387,18.1399552 C122.887907,18.7164672 122.133959,19.8060032 121.942191,19.9022592 C122.2036,19.9985152 123.061507,21.7116672 123.061507,21.7116672 L123.916387,19.3964032 C123.916387,19.3964032 122.807163,17.8982912 122.831387,18.1399552" id="Fill-272" fill="#4A75DD"></path>
                                <path d="M118.255109,17.2959744 C118.231895,17.7301504 119.928532,19.5262464 121.252737,20.0116224 C120.849016,20.1795584 119.269458,21.3735424 118.913174,21.8097664 C117.771653,20.5563904 116.955127,18.4694784 117.137811,18.3343104 C117.494095,18.0690944 118.255109,17.2959744 118.255109,17.2959744" id="Fill-273" fill="#6597EF"></path>
                                <path d="M117.961301,17.3709312 C117.972403,17.3012992 116.181901,18.3314432 116.181901,18.3314432 L115.659082,19.8459392 L116.948971,20.2135552 L115.174617,21.2344832 L118.31052,29.7920512 C118.31052,29.7920512 117.767515,20.5023232 117.553543,19.3974272 C117.291124,18.0416512 117.961301,17.3709312 117.961301,17.3709312" id="Fill-274" fill="#26282D"></path>
                                <path d="M122.997013,18.2459392 C123.163548,18.3022592 124.932855,19.3539072 124.932855,19.3539072 L125.366855,20.4700672 L124.076967,20.6328832 L125.406218,21.3292032 L124.908632,30.2420992 C124.908632,30.2420992 123.52286,20.7455232 123.496618,19.6221952 C123.476432,18.6524672 122.997013,18.2459392 122.997013,18.2459392" id="Fill-275" fill="#000000"></path>
                                <polygon id="Fill-276" fill="#000000" points="127.319047 35.4239488 129.127717 36.1960448 129.317466 38.3198208 127.414931 37.1606528"></polygon>
                                <path d="M117.859866,11.9819264 C117.766001,12.6034944 118.067782,14.9136384 118.032457,15.0324224 C118.002178,15.1501824 117.909322,15.5761664 117.795271,15.5177984 C117.68021,15.4594304 118.430122,16.2683904 118.659233,16.0943104 C118.884308,15.9202304 119.609996,12.9793024 119.529252,12.8041984 C119.448508,12.6290944 117.859866,11.9819264 117.859866,11.9819264" id="Fill-277" fill="#5B250E"></path>
                                <path d="M124.188696,15.4099712 C124.595445,14.2958592 124.961822,12.5775872 124.595445,11.3027072 C124.351194,10.4865792 122.628315,9.6376832 122.209454,9.6018432 C119.602427,9.3734912 119.345054,11.0323712 119.176501,12.7516672 C118.616338,12.3451392 118.316575,12.9083392 118.305473,13.5964672 C118.293361,14.1217792 118.511371,14.7372032 118.840403,14.9399552 C118.915092,16.4370432 119.795203,17.6422912 121.613966,17.9996672 C121.932906,18.0641792 122.226613,18.0211712 122.499124,17.8982912 C122.91092,17.7590272 123.220775,17.4221312 123.482185,16.9859072 C123.73451,16.5998592 124.160436,15.4826752 124.188696,15.4099712" id="Fill-278" fill="#FFBD95"></path>
                                <path d="M119.237766,9.2524544 C119.488073,8.8530944 120.746673,9.1408384 120.688133,9.4654464 C120.694189,9.4664704 121.31491,9.5238144 121.31491,9.5227904 C121.38657,8.9124864 120.579128,10.4863744 120.596287,10.6256384 C119.090407,10.5252864 119.847384,12.4432384 119.669747,12.6900224 C119.427514,13.0217984 119.466877,13.3269504 119.466877,13.3269504 L119.13078,13.1303424 L118.7967,12.5302784 L117.986231,13.1241984 C117.986231,13.1241984 117.22017,9.9180544 119.237766,9.2524544" id="Fill-279" fill="#5B250E"></path>
                                <path d="M124.501075,9.8709504 C123.951006,9.4234624 121.955615,8.1403904 120.895847,8.7107584 C119.837089,9.2852224 120.311461,9.4459904 120.311461,9.4459904 L120.596085,10.6256384 C120.997787,9.8791424 121.851657,10.6676224 122.155457,11.0536704 C123.102182,12.2619904 124.575764,11.9558144 124.58182,11.9650304 C124.82708,12.3459584 124.587875,14.1062144 124.587875,14.1062144 L124.878554,13.9700224 C124.878554,13.9700224 125.327694,13.2665344 125.36302,12.3551744 C125.371094,12.1309184 125.286313,11.9762944 125.278238,11.7909504 C125.716275,11.2277504 125.053164,10.3215104 124.501075,9.8709504" id="Fill-280" fill="#873F26"></path>
                                <path d="M124.406504,14.8159488 C124.377234,15.4201088 124.126927,16.8926208 123.780736,17.4312448 C123.432527,17.9719168 122.32936,19.1259648 121.736899,19.0962688 C121.453285,18.5832448 121.95289,16.7922688 121.95289,16.7922688 C121.95289,16.7922688 122.793639,16.9960448 123.462806,16.4256768 C124.131973,15.8583808 124.406504,14.8159488 124.406504,14.8159488" id="Fill-281" fill="#873F26"></path>
                                <path d="M122.842287,15.5429888 C123.115808,15.6044288 123.433738,16.4553728 123.463008,16.7830528 C123.493287,17.1076608 122.535459,16.0334848 122.269003,16.1287168 L122.270013,15.4436608 L122.842287,15.5429888 Z" id="Fill-282" fill="#873F26"></path>
                                <path d="M122.269609,15.443968 C122.269609,15.443968 121.672102,15.374336 121.432897,15.593472 C121.193693,15.813632 120.562879,16.459776 120.562879,16.459776 C120.562879,16.459776 120.854567,16.764928 121.492446,16.333824 C121.835609,16.1024 122.2686,16.129024 122.2686,16.129024 L122.269609,15.443968 Z" id="Fill-283" fill="#5B250E"></path>
                                <path d="M119.298828,11.9430144 C119.314977,12.5481984 119.607675,14.8122624 119.953866,15.6437504 C120.282898,16.4301824 121.785749,16.7056384 122.098633,16.8162304 C122.126893,17.1879424 121.773638,19.1048704 121.773638,19.1048704 C121.773638,19.1048704 120.274824,18.8877824 119.514819,17.3599744 C119.101005,16.5295104 118.80427,15.6754944 118.845652,15.2484864 C118.915293,14.5378304 119.298828,11.9430144 119.298828,11.9430144" id="Fill-284" fill="#5B250E"></path>
                                <path d="M60.5149414,99.7819392 C60.5149414,99.7819392 60.5320995,111.883571 60.7046902,115.231027 C65.1345181,115.611955 68.5298112,115.744051 68.4783367,114.751795 C68.4278716,113.759539 67.8666995,103.315763 67.9504716,102.566195 C68.0342437,101.817651 69.7460205,96.2849792 67.7556763,95.2609792 C61.1538298,91.8541312 60.5149414,99.7819392 60.5149414,99.7819392" id="Fill-285" fill="#000000"></path>
                                <path d="M62.7365167,95.7259776 C65.2769307,94.8340736 72.2623121,92.6683136 73.9660144,92.4450816 C77.5621586,91.9678976 79.3607353,93.9503616 78.611833,97.5190016 C77.7720935,101.51977 69.1597167,113.396122 69.8409958,115.03657 C66.6112284,116.75177 62.8364377,116.090266 62.8364377,116.090266 C62.8364377,116.090266 67.9556191,102.463898 68.2563912,101.133722 C68.5581726,99.8025216 62.7365167,95.7259776 62.7365167,95.7259776" id="Fill-286" fill="#000000"></path>
                                <polygon id="Fill-287" fill="#999DAA" points="50.5431353 126.204006 51.2980935 126.204006 54.9669074 102.808678 53.0098702 102.808678"></polygon>
                                <polygon id="Fill-288" fill="#999DAA" points="73.1962195 126.076006 73.9471405 126.076006 70.9151963 102.679654 68.9874288 102.679654"></polygon>
                                <polygon id="Fill-289" fill="#999DAA" points="55.7975633 122.207949 56.2113772 122.207949 59.2806656 103.364301 57.5012656 103.364301"></polygon>
                                <polygon id="Fill-290" fill="#999DAA" points="76.686387 121.822003 77.1002009 121.822003 74.8222056 100.748083 73.2698986 102.978355"></polygon>
                                <path d="M53.4103614,101.58295 C54.1340312,100.878438 54.4136079,100.653158 54.9323893,100.29783 C55.1665474,100.136038 57.5969474,97.8504704 57.5969474,97.8504704 L73.8235009,98.8161024 C73.8235009,98.8161024 74.297873,98.9133824 74.8227102,99.1058944 C75.1648637,99.2318464 75.3414916,100.193382 75.2991009,100.988006 C75.2506544,101.858406 73.8023056,103.449702 72.4427753,104.320102 C70.5493242,105.533542 65.2393847,105.308262 64.4824079,105.308262 L63.4801707,105.308262 C62.723194,105.308262 54.9858823,105.49975 53.0914219,104.288358 C52.4010591,103.844966 52.8057893,102.172774 53.4103614,101.58295" id="Fill-291" fill="#44476E"></path>
                                <path d="M66.6091088,69.2100096 C66.2316298,69.4127616 65.701746,69.1137536 65.701746,69.1137536 L65.7078019,67.8009856 C66.0348158,67.6596736 67.1188065,67.8562816 67.0865088,68.1440256 C67.0521926,68.4327936 66.9875972,69.0082816 66.6091088,69.2100096 M65.6674298,67.7057536 L65.6603647,69.1915776 C65.6603647,69.1915776 66.2608995,69.5294976 66.6878344,69.3001216 C67.1147693,69.0717696 67.1894577,68.4205056 67.2268019,68.0918016 C67.264146,67.7661696 66.0378437,67.5460096 65.6674298,67.7057536" id="Fill-292" fill="#26282D"></path>
                                <path d="M58.0537577,68.0450048 C58.3141577,68.9123328 58.2929623,72.0918528 57.9649391,73.4332928 C57.6439809,74.7737088 56.0543298,76.5841408 56.0543298,76.5841408 L63.4504972,77.9962368 C63.4504972,77.9962368 62.805553,72.9223168 64.1832507,71.9556608 C65.032074,71.3627648 58.0537577,68.0450048 58.0537577,68.0450048" id="Fill-293" fill="#CC9483"></path>
                                <path d="M66.6051726,67.3399808 C66.6092098,68.0608768 66.3811074,68.0035328 66.2932981,68.7131648 C66.2640284,68.9497088 66.383126,69.2354048 66.3447726,69.4637568 C66.0076656,71.4421248 65.4141958,73.1921408 64.5118795,73.4215168 C63.1977679,73.7604608 59.4310516,71.8629888 58.7709679,69.2814848 C58.1209772,66.6999808 60.3757586,63.6177408 62.9414051,63.3576448 C65.7412098,63.0719488 66.5940702,64.6775808 66.6051726,67.3399808" id="Fill-294" fill="#CC9483"></path>
                                <path d="M57.0256823,73.7769472 C55.7872684,74.4855552 54.58418,76.0614912 52.50098,76.6124032 C52.50098,76.6124032 51.5431521,76.6615552 51.3786358,77.0588672 C49.1975335,82.3703552 53.0722451,85.3297152 52.8390963,87.4227712 C51.8812684,95.9741952 55.2563753,98.8219392 55.5450358,99.9063552 C55.6843195,100.437811 58.6567149,101.089075 61.6947149,101.140275 C63.3418963,101.663539 70.218273,99.5940352 70.7774265,99.1311872 C71.0438823,98.4113152 70.435273,96.7954432 70.0053102,94.9798912 C68.9314126,90.4579072 69.5894777,90.5961472 69.7792265,88.2604032 C69.9154823,86.5503232 71.6857986,86.3619072 72.20458,85.3952512 C72.7294172,84.4183552 69.9366777,76.8018432 69.9366777,76.8018432 C69.9366777,76.8018432 67.0783335,76.4014592 63.9727102,74.6299392 C63.2116963,74.1957632 61.3081521,74.8234752 61.3081521,74.8234752 L57.0256823,73.7769472 Z" id="Fill-295" fill="#000000"></path>
                                <path d="M57.5501158,72.4100096 C57.781246,72.5277696 61.4369391,73.6490496 63.6563949,73.4217216 C63.990474,73.8518016 63.5917995,74.9198336 63.5917995,74.9198336 C63.5917995,74.9198336 56.9818786,74.0340736 56.7891019,73.7596416 C56.5953158,73.4862336 57.5501158,72.4100096 57.5501158,72.4100096" id="Fill-296" fill="#D4D5D6"></path>
                                <path d="M57.0256823,72.9399296 L55.6298172,74.6776576 C55.6298172,74.6776576 58.2974033,74.8199936 59.4056172,75.1118336 C61.7724312,75.7395456 64.78318,75.2582656 64.78318,75.2582656 L64.2583428,73.9045376 C64.2583428,73.9045376 62.1277056,74.1124096 59.4076358,73.4980096 C58.4447614,73.2809216 57.0256823,72.9399296 57.0256823,72.9399296" id="Fill-297" fill="#000000"></path>
                                <path d="M75.6150126,97.5299584 C74.0919753,98.9461504 70.6674126,101.135462 69.2705381,101.519462 C67.8756823,101.90551 62.4183847,100.104294 61.6563614,98.4321024 C60.8953474,96.7558144 68.1280079,94.5685504 70.4130684,94.5685504 C72.6961102,94.5685504 75.6150126,97.5299584 75.6150126,97.5299584" id="Fill-298" fill="#000000"></path>
                                <path d="M69.82626,76.75392 C71.2059763,76.705792 71.4724321,79.73376 72.3797949,82.660352 C73.361846,85.82144 74.7264228,89.232384 74.7264228,89.933824 C74.7264228,91.28448 75.3955902,95.081472 73.7130833,94.824448 C71.1736786,94.439424 69.9685716,91.994112 68.2557856,88.90368 C66.5429995,85.814272 69.82626,76.75392 69.82626,76.75392" id="Fill-299" fill="#000000"></path>
                                <path d="M67.3670949,63.1560192 C66.4789088,64.2516992 62.069267,58.9084672 58.7395786,61.9661312 C58.4246763,62.2538752 58.5064298,62.5324032 58.4226577,62.5764352 C58.2944763,62.6419712 58.1450995,62.6337792 57.8826809,62.7382272 C56.2334809,63.3823232 55.9912484,66.0477952 56.3828577,67.6360192 C56.8804437,69.6358912 58.0734391,70.8483072 57.7565181,71.9419392 C57.5294251,72.7222272 62.6082344,72.9403392 62.6082344,72.9403392 C62.6082344,72.9403392 64.1332902,70.6363392 63.9728112,70.1878272 C63.3541088,68.4500992 64.2130251,67.4957312 64.4966391,68.3057152 C64.7116205,68.9242112 64.7439181,68.9815552 64.7439181,68.9815552 L64.977067,69.1515392 C64.977067,69.1515392 64.9851414,66.8076032 65.8380019,66.4399872 C67.177346,65.8604032 67.3670949,63.1560192 67.3670949,63.1560192" id="Fill-300" fill="#5B250E"></path>
                                <path d="M63.9085186,61.7560064 C64.7300907,62.1522944 66.0825558,63.2367104 66.7012581,62.8977664 C66.1612814,63.1240704 65.6394721,63.0124544 65.6394721,63.0124544 C65.6394721,63.0124544 66.7486953,63.3985024 67.1766395,63.0124544 C66.8435698,63.6381184 66.3217605,63.5756544 66.3217605,63.5756544 C66.3217605,63.5756544 67.3199605,63.5756544 67.6530302,62.8977664 C67.2725233,64.1050624 67.3199605,64.0743424 66.6538209,63.9125504 C65.6768163,63.6780544 64.1951605,61.9495424 62.6085372,61.3064704 C62.193714,61.1364864 62.9587651,61.2962304 63.9085186,61.7560064" id="Fill-301" fill="#873F26"></path>
                                <path d="M65.4953437,64.0579584 C66.1614833,64.4757504 67.462474,64.9263104 67.8439902,63.6708864 C67.4947716,64.0262144 65.8758507,64.3794944 65.0199623,63.4783744 C64.1630647,62.5762304 65.4953437,64.0579584 65.4953437,64.0579584" id="Fill-302" fill="#873F26"></path>
                                <path d="M64.2632884,67.9799808 C64.2632884,67.9799808 66.769386,68.3557888 67.0943814,68.2462208 C67.3093628,68.1724928 66.9540884,68.8206848 66.9540884,68.8206848 L64.4964372,68.3056128 L64.2632884,67.9799808 Z" id="Fill-303" fill="#26282D"></path>
                                <path d="M65.2972177,113.383936 C65.0903107,112.057856 63.2241107,111.77728 62.5549433,112.167424 C61.7000642,112.664064 61.4164502,114.464256 61.6021619,115.82208 C61.7111665,116.62592 60.6392874,118.010368 60.40412,118.829568 C60.2173991,119.485952 60.1457386,120.656384 61.0541107,121.061888 C61.5668363,121.29024 61.9372502,121.596416 63.9740223,121.939456 C64.5008781,122.025472 65.0287433,122.2016 65.1438037,121.586176 C65.2992363,120.749568 65.2901526,119.54944 65.3335526,117.595648 C65.3537386,116.716032 65.2972177,113.383936 65.2972177,113.383936" id="Fill-304" fill="#000000"></path>
                                <polygon id="Fill-305" fill="#26282D" points="61.6779605 114.889933 64.5857605 115.345613 64.4384023 115.926221 61.5851047 115.590349"></polygon>
                                <path d="M61.9874126,113.342976 C62.5041753,112.915968 64.933566,113.186304 64.9870591,114.013696 C65.2757195,113.151488 64.632794,112.353792 63.427687,112.23296 C62.2215707,112.11008 61.9874126,113.342976 61.9874126,113.342976" id="Fill-306" fill="#26282D"></path>
                                <path d="M65.2736,113.427968 C64.1310698,112.752128 62.7352047,114.04032 62.6080326,114.814464 C62.4475535,115.797504 63.6405488,117.160448 64.7941814,117.874176 C65.4764698,118.30016 65.8539488,120.018432 66.3323581,120.719872 C67.3507442,122.217984 72.1822744,121.680384 72.0631767,120.188416 C71.9612372,118.913536 71.0518558,118.275584 68.5094233,116.065792 C67.8523674,115.496448 65.2736,113.427968 65.2736,113.427968" id="Fill-307" fill="#26282D"></path>
                                <polygon id="Fill-308" fill="#000000" points="64.1312716 117.225984 66.3214577 115.231232 66.669667 115.713536 64.6086716 117.74208"></polygon>
                                <path d="M63.148514,116.003942 C63.148514,115.328102 64.8935977,113.590374 65.5597372,114.071654 C65.0833465,113.298534 64.0679884,113.299558 63.2110907,114.168934 C62.3562116,115.03831 63.148514,116.003942 63.148514,116.003942" id="Fill-309" fill="#000000"></path>
                                <path d="M67.5888386,85.2979712 C67.1477735,84.1439232 62.6079316,83.2561152 60.3319549,83.0861312 C53.7906665,82.5946112 50.477127,83.6995072 50.8727735,85.2979712 C53.8219549,97.2716032 50.7456014,100.103987 53.0286433,102.420275 C54.2983456,103.708467 74.7165316,103.969587 72.4385363,102.680371 C70.1595316,101.391155 68.8908386,100.618035 68.6375037,95.7263872 C68.3821502,90.8347392 67.5888386,85.2979712 67.5888386,85.2979712" id="Fill-310" fill="#44476E"></path>
                            </g>
                        </g>
                    </g>
                </g>
            </g>
        </g>
    </g>
</svg>