<?xml version="1.0" encoding="UTF-8"?>
<svg width="28px" height="28px" viewBox="0 0 28 28" version="1.1" xmlns="http://www.w3.org/2000/svg" xmlns:xlink="http://www.w3.org/1999/xlink">
    <!-- Generator: Sketch 54.1 (76490) - https://sketchapp.com -->
    <title>sunrise@1x</title>
    <desc>Created with Sketch.</desc>
    <g id="HD-Desktop" stroke="none" stroke-width="1" fill="none" fill-rule="evenodd">
        <g id="Main-HD-Desktop" transform="translate(-1013.000000, -1092.000000)">
            <g id="2-events" transform="translate(0.000000, 560.000000)">
                <g id="sunrise" transform="translate(1013.000000, 532.000000)">
                    <g>
                        <path d="M8.98200546,19.6682044 C10.7087888,21.3606546 12.3771565,18.3073159 14.0441582,18.3073159 C15.7111598,18.3073159 16.0368989,19.9465979 18.2925369,19.9465979 C20.002107,19.9465979 20.168993,18.5084783 21.5792176,18.4399077 C22.3309148,17.1474254 22.7620095,15.6444077 22.7620095,14.0400962 C22.7620095,9.21060829 18.8588235,5.29550505 14.0441035,5.29550505 C9.22932892,5.29550505 5.32619754,9.2106631 5.32619754,14.0400962 C5.32619754,15.5912394 5.72936866,17.047776 6.43554653,18.3109335 C6.94533012,18.3394361 7.86445972,18.5728284 8.98200546,19.6682044 Z" id="Path" fill="#EAC71C"></path>
                        <path d="M14.0439942,5.29545024 C12.3886866,5.29545024 10.8411391,5.75817864 9.52293673,6.56178692 C9.16249803,7.66554928 8.96681414,8.84413091 8.96681414,10.0687552 C8.96681414,13.5162517 10.5123398,16.6012173 12.9456289,18.6661743 C13.3121878,18.4544331 13.6781457,18.3073159 14.0440489,18.3073159 C15.7109959,18.3073159 16.0367896,19.9465979 18.2924276,19.9465979 C20.0019431,19.9465979 20.1688837,18.5084783 21.5791083,18.4399077 C22.3308055,17.1474254 22.7619002,15.6444077 22.7619002,14.0400962 C22.7619002,9.21060829 18.8587142,5.29545024 14.0439942,5.29545024 Z" id="Path" fill="#EDE21B"></path>
                        <path d="M10.9992272,19.9353613 C12.0231113,19.4284539 13.0338806,18.3073159 14.0441035,18.3073159 C15.4290821,18.3073159 15.8891933,19.4381009 17.2986529,19.8210221 C19.2969674,18.6827826 20.6452245,16.5290291 20.6452245,14.0593354 C20.6452245,10.4025094 17.6897475,7.43791234 14.0440489,7.43791234 C10.3983503,7.43791234 7.44281858,10.4024546 7.44281858,14.0593354 C7.44276393,16.6145916 8.88599412,18.8313797 10.9992272,19.9353613 Z" id="Path" fill="#EF8229"></path>
                        <g id="Group" transform="translate(0.054645, 0.000000)" fill="#EDE21B">
                            <path d="M13.9893492,3.69437269 C13.7293481,3.69437269 13.5185275,3.4829603 13.5185275,3.22210689 L13.5185275,0.50383789 C13.5185275,0.243039296 13.7293481,0.0315720871 13.9893492,0.0315720871 C14.2493503,0.0315720871 14.4601709,0.243039296 14.4601709,0.50383789 L14.4601709,3.2221617 C14.4601709,3.48290549 14.2493503,3.69437269 13.9893492,3.69437269 Z" id="Path"></path>
                            <path d="M8.59282348,5.14498951 C8.4300359,5.14498951 8.2718385,5.06030396 8.18462502,4.9088018 L6.82970121,2.55470805 C6.69964602,2.3287703 6.77685946,2.04001725 7.00199703,1.90961796 C7.2271346,1.77916385 7.51516861,1.85666894 7.64511452,2.08244225 L9.00003832,4.43653599 C9.13009352,4.66247374 9.05288008,4.95122679 8.82774251,5.08162609 C8.75364383,5.1245992 8.67265988,5.14498951 8.59282348,5.14498951 Z" id="Path"></path>
                            <path d="M4.64105801,9.10805382 C4.56122161,9.10805382 4.4802923,9.0876087 4.40613898,9.0446904 L2.05924374,7.6855559 C1.83410617,7.5551566 1.75689273,7.26629393 1.88694793,7.0404658 C2.01689383,6.81463768 2.30476391,6.73713259 2.53006542,6.86764151 L4.87696066,8.22677601 C5.10209823,8.35717531 5.17931167,8.64603798 5.04925647,8.87186611 C4.96204299,9.02331346 4.80379095,9.10805382 4.64105801,9.10805382 Z" id="Path"></path>
                            <path d="M3.19525951,14.5215705 L0.485247968,14.5215705 C0.225246861,14.5215705 0.0144262909,14.3101033 0.0144262909,14.0493047 C0.0144262909,13.7885061 0.225246861,13.5770389 0.485247968,13.5770389 L3.19525951,13.5770389 C3.45526062,13.5770389 3.66608119,13.7885061 3.66608119,14.0493047 C3.66608119,14.3101033 3.45526062,14.5215705 3.19525951,14.5215705 Z" id="Path"></path>
                            <path d="M27.4934504,14.5215705 L24.7834389,14.5215705 C24.5234378,14.5215705 24.3126172,14.3101033 24.3126172,14.0493047 C24.3126172,13.7885061 24.5234378,13.5770389 24.7834389,13.5770389 L27.4934504,13.5770389 C27.7534515,13.5770389 27.9642721,13.7885061 27.9642721,14.0493047 C27.9642721,14.3101033 27.7534515,14.5215705 27.4934504,14.5215705 Z" id="Path"></path>
                            <path d="M23.3378589,9.10805382 C23.1750714,9.10805382 23.016874,9.02336828 22.9296605,8.87186611 C22.7996599,8.64603798 22.8768187,8.35717531 23.1019563,8.22677601 L25.4487422,6.86764151 C25.6738798,6.73735184 25.9618592,6.81458287 26.0918597,7.0404658 C26.2218603,7.26629393 26.1447561,7.5551566 25.9195639,7.6855559 L23.572778,9.0446904 C23.4986247,9.0876087 23.4176953,9.10805382 23.3378589,9.10805382 Z" id="Path"></path>
                            <path d="M19.3858749,5.14498951 C19.3060385,5.14498951 19.2251092,5.12454439 19.1509559,5.08162609 C18.9258183,4.95122679 18.8486595,4.66236412 18.9786601,4.43653599 L20.3336931,2.08244225 C20.4636937,1.8565045 20.7516731,1.77916385 20.9768106,1.90961796 C21.2019482,2.04001725 21.279107,2.32887993 21.1491065,2.55470805 L19.7940734,4.9088018 C19.7068599,5.06030396 19.5486625,5.14498951 19.3858749,5.14498951 Z" id="Path"></path>
                        </g>
                        <path d="M14.0439942,7.43785753 C12.0042588,7.43785753 10.1807537,8.36605496 8.96987426,9.8241263 C8.96818027,9.90546827 8.96675949,9.98691987 8.96675949,10.0687003 C8.96675949,13.5162517 10.5123398,16.6013269 12.9457382,18.6662839 C13.3122971,18.4545975 13.6782003,18.3072611 14.0439942,18.3072611 C15.4289728,18.3072611 15.8890841,19.4380461 17.2985436,19.8209673 C19.2968581,18.6827277 20.6451152,16.5289742 20.6451152,14.0592806 C20.6451699,10.4023998 17.6897475,7.43785753 14.0439942,7.43785753 Z" id="Path" fill="#F29F26"></path>
                        <g id="Group" transform="translate(0.000000, 17.814112)" fill="#5ABCE2">
                            <path d="M2.45695035,2.604752 C3.31176274,2.604752 4.11580988,2.27044964 4.72105836,1.66339953 C4.72133158,1.66312546 4.72155016,1.66279659 4.72182339,1.66257734 C5.14909296,1.23438091 5.71630849,0.998522068 6.31937117,0.998522068 C6.92226991,0.998522068 7.48954009,1.23427128 7.91675502,1.66252253 C7.91702825,1.66279659 7.91730147,1.66318028 7.91762934,1.66345434 C8.54183965,2.28946963 9.36189779,2.60255949 10.1818466,2.60255949 C11.0017955,2.60255949 11.8217443,2.28946963 12.4459546,1.66345434 C12.4462825,1.66312546 12.4466104,1.66274178 12.4469382,1.6624129 C12.8741532,1.23432609 13.4413141,0.998576881 14.0442675,0.998576881 C14.6472208,0.998576881 15.2146003,1.23438091 15.6418152,1.66263215 C15.6420885,1.6628514 15.642307,1.66318028 15.6425803,1.66345434 C16.2477195,2.27050445 17.0518212,2.60480681 17.9066883,2.60480681 C18.7615553,2.60480681 19.5656024,2.27050445 20.1708509,1.66350915 C20.1712334,1.66318028 20.1715067,1.66279659 20.1718345,1.66246771 C20.5990495,1.23438091 21.1662104,0.998631693 21.7691637,0.998631693 C22.3721171,0.998631693 22.9394966,1.23443572 23.3667662,1.66268696 C23.3669847,1.66290621 23.367258,1.66323509 23.3675312,1.66350915 C23.9726157,2.27055927 24.7767722,2.60486163 25.6316392,2.60486163 C26.4864516,2.60486163 27.2905534,2.27055927 27.8957472,1.66350915 C28.0795731,1.47911939 28.0795731,1.18011638 27.8956926,0.99567181 C27.7119213,0.811336864 27.4138326,0.811282051 27.2298974,0.995726623 C26.8025732,1.42436156 26.2350297,1.66043964 25.6316938,1.66043964 C25.0286858,1.66043964 24.4614703,1.42463562 24.0342007,0.996439187 C24.0339821,0.996219937 24.0337089,0.995891061 24.0334357,0.995616997 C23.4282418,0.388457259 22.6241401,0.0542097121 21.7692184,0.0542097121 C20.914406,0.0542097121 20.1103042,0.388566885 19.5051104,0.995616997 C19.5049464,0.995781435 19.5047825,0.996055499 19.5045639,0.996274749 C19.0771851,1.42452599 18.5098602,1.66043964 17.9067976,1.66043964 C17.3038442,1.66043964 16.7365194,1.42463562 16.3093044,0.996439187 C16.3090312,0.996219937 16.3088126,0.995891061 16.3085394,0.995616997 C15.7033456,0.388457259 14.8992438,0.0542097121 14.0443221,0.0542097121 C13.1894551,0.0542097121 12.3854079,0.388566885 11.7802141,0.995616997 C11.7799955,0.995781435 11.7798862,0.996055499 11.7796676,0.996274749 C10.8985164,1.87941619 9.46545014,1.87941619 8.58413491,0.996329562 C8.58391633,0.996110311 8.58369775,0.995836248 8.58347917,0.995616997 C7.97839463,0.388566885 7.17429285,0.0542097121 6.31942582,0.0542097121 C5.46461343,0.0542097121 4.66056629,0.388512072 4.05526317,0.995616997 C4.05498995,0.995891061 4.05477136,0.996219937 4.05449814,0.996439187 C3.62728321,1.42458081 3.06006768,1.66043964 2.457005,1.66043964 C1.85361445,1.66043964 1.28601641,1.42436156 0.858637536,0.99567181 C0.674811617,0.811336864 0.376722916,0.811282051 0.192842351,0.995726623 C0.00901643184,1.18011638 0.00901643184,1.47917421 0.192896996,1.66361878 C0.79798154,2.27044964 1.60202868,2.604752 2.45695035,2.604752 Z" id="Path"></path>
                            <path d="M27.2294056,4.30948027 C26.8020813,4.7381152 26.2345379,4.97419329 25.631202,4.97419329 C25.0282487,4.97419329 24.4609785,4.73838926 24.0337089,4.31019283 C24.0334903,4.30997358 24.0332171,4.30964471 24.0329439,4.30937064 C23.42775,3.70226572 22.6236483,3.36796336 21.7687266,3.36796336 C20.9139142,3.36796336 20.1098124,3.70232053 19.5046186,4.30937064 C19.5044546,4.30953508 19.5042907,4.30980914 19.5040721,4.31002839 C19.0766933,4.73827964 18.5093684,4.97419329 17.9063058,4.97419329 C17.3032977,4.97419329 16.7360276,4.73838926 16.3088126,4.31019283 C16.3085394,4.30997358 16.3083208,4.30964471 16.3080476,4.30937064 C15.7028538,3.70226572 14.898752,3.36796336 14.0438303,3.36796336 C13.1889633,3.36796336 12.3849161,3.70232053 11.7797223,4.30937064 C11.7795037,4.30953508 11.7793944,4.30980914 11.7791758,4.30997358 C10.8980245,5.19316983 9.46495834,5.19316983 8.58364311,4.31008321 C8.58342453,4.30986396 8.58320595,4.30958989 8.58298737,4.30937064 C7.97790282,3.70232053 7.17380104,3.36796336 6.31893401,3.36796336 C5.46412163,3.36796336 4.66007449,3.70226572 4.05477136,4.30937064 C4.05449814,4.30964471 4.05427956,4.30997358 4.05400633,4.31019283 C3.6267914,4.73833445 3.05957587,4.97419329 2.45651319,4.97419329 C1.85312265,4.97419329 1.2855246,4.7381152 0.858145731,4.30942545 C0.674319811,4.12509051 0.37623111,4.1250357 0.192350546,4.30948027 C0.00852462646,4.49387003 0.00852462646,4.79292785 0.192405191,4.97737242 C0.79754438,5.58436772 1.60164616,5.91867008 2.45656784,5.91867008 C3.31138022,5.91867008 4.11542736,5.58436772 4.72067584,4.97731761 C4.72094907,4.97704355 4.72116765,4.97671467 4.72144087,4.97649542 C5.14871045,4.54829899 5.71592598,4.31244015 6.31898866,4.31244015 C6.9218874,4.31244015 7.48915757,4.54818936 7.91637251,4.97644061 C7.91664573,4.97671467 7.91691896,4.97709836 7.91724683,4.97737242 C8.54145714,5.60338771 9.36151527,5.91647758 10.1814641,5.91647758 C11.001413,5.91647758 11.8213618,5.60338771 12.4455721,4.97737242 C12.4459,4.97704355 12.4462279,4.97665986 12.4465557,4.97633098 C12.8737707,4.54824418 13.4409316,4.31249496 14.0438849,4.31249496 C14.646893,4.31249496 15.2142178,4.54829899 15.6414327,4.97655023 C15.641706,4.97676948 15.6419245,4.97709836 15.6421978,4.97737242 C16.2473369,5.58442254 17.0514387,5.9187249 17.9063058,5.9187249 C18.7611728,5.9187249 19.5652199,5.58442254 20.1704684,4.97742724 C20.1708509,4.97709836 20.1711241,4.97671467 20.171452,4.9763858 C20.598667,4.54829899 21.1658278,4.31254978 21.7687812,4.31254978 C22.3717346,4.31254978 22.9391141,4.5483538 23.3663837,4.97660505 C23.3666022,4.9768243 23.3668755,4.97715317 23.3671487,4.97742724 C23.9722332,5.58447735 24.7763897,5.91877971 25.6312567,5.91877971 C26.4860691,5.91877971 27.2901709,5.58447735 27.8953647,4.97742724 C28.0791906,4.79303748 28.0791906,4.49403446 27.89531,4.30958989 C27.7113748,4.1250357 27.4133408,4.12498088 27.2294056,4.30948027 Z" id="Path"></path>
                            <path d="M27.2294056,7.62328872 C26.8020813,8.05192366 26.2345379,8.28800175 25.631202,8.28800175 C25.0282487,8.28800175 24.4609785,8.05219772 24.0337089,7.62400129 C24.0334903,7.62378204 24.0332171,7.62345316 24.0329439,7.6231791 C23.42775,7.01601936 22.6236483,6.68177181 21.7687266,6.68177181 C20.9139142,6.68177181 20.1098124,7.01612899 19.5046186,7.6231791 C19.5044546,7.62334354 19.5042907,7.6236176 19.5040721,7.62383685 C19.0766933,8.0520881 18.5093684,8.28800175 17.9063058,8.28800175 C17.3032977,8.28800175 16.7360276,8.05219772 16.3088126,7.62400129 C16.3085394,7.62378204 16.3083208,7.62345316 16.3080476,7.6231791 C15.7028538,7.01601936 14.898752,6.68177181 14.0438303,6.68177181 C13.1889633,6.68177181 12.3849161,7.01612899 11.7797223,7.6231791 C11.7795037,7.62334354 11.7793944,7.6236176 11.7791758,7.62383685 C10.8980245,8.50697829 9.46495834,8.50697829 8.58364311,7.62389166 C8.58342453,7.62367241 8.58320595,7.62339835 8.58298737,7.6231791 C7.97790282,7.01612899 7.17380104,6.68177181 6.31893401,6.68177181 C5.46412163,6.68177181 4.66007449,7.01607417 4.05477136,7.6231791 C4.05449814,7.62345316 4.05427956,7.62378204 4.05400633,7.62400129 C3.6267914,8.05214291 3.05957587,8.28800175 2.45651319,8.28800175 C1.85312265,8.28800175 1.2855246,8.05192366 0.858145731,7.62323391 C0.674319811,7.43889897 0.37623111,7.43884415 0.192350546,7.62328872 C0.00852462646,7.80767848 0.00852462646,8.1066815 0.192405191,8.29112607 C0.79754438,8.89812137 1.60164616,9.23242373 2.45656784,9.23242373 C3.31138022,9.23242373 4.11542736,8.89812137 4.72067584,8.29107125 C4.72094907,8.29079719 4.72116765,8.29046832 4.72144087,8.29024906 C5.14871045,7.86205263 5.71592598,7.62619379 6.31898866,7.62619379 C6.9218874,7.62619379 7.48915757,7.86194301 7.91637251,8.29019425 C7.91664573,8.29046832 7.91691896,8.290852 7.91724683,8.29112607 C8.54145714,8.91714136 9.36151527,9.23023122 10.1814641,9.23023122 C11.001413,9.23023122 11.8213618,8.91714136 12.4455721,8.29112607 C12.4459,8.29079719 12.4462279,8.2904135 12.4465557,8.29008463 C12.8737707,7.86199782 13.4409316,7.62624861 14.0438849,7.62624861 C14.646893,7.62624861 15.2142178,7.86205263 15.6414327,8.29030388 C15.641706,8.29052313 15.6419245,8.290852 15.6421978,8.29112607 C16.2473369,8.89817618 17.0514387,9.23247854 17.9063058,9.23247854 C18.7611728,9.23247854 19.5652199,8.89817618 20.1704684,8.29118088 C20.1708509,8.290852 20.1711241,8.29046832 20.171452,8.29013944 C20.598667,7.86205263 21.1658278,7.62630342 21.7687812,7.62630342 C22.3717346,7.62630342 22.9391141,7.86210745 23.3663837,8.29035869 C23.3666022,8.29057794 23.3668755,8.29090682 23.3671487,8.29118088 C23.9722332,8.89823099 24.7763897,9.23253335 25.6312567,9.23253335 C26.4860691,9.23253335 27.2901709,8.89823099 27.8953647,8.29118088 C28.0791906,8.10679112 28.0791906,7.80778811 27.89531,7.62328872 C27.7113748,7.43884415 27.4133408,7.43878934 27.2294056,7.62328872 Z" id="Path"></path>
                        </g>
                    </g>
                </g>
            </g>
        </g>
    </g>
</svg>